<svg width="2118" height="3372" viewBox="0 0 2118 3372" fill="none" xmlns="http://www.w3.org/2000/svg">
<rect width="2118" height="3372" fill="#1E1E1E"/>
<rect width="30000" height="30000" transform="translate(-7853 -2587)" fill="white"/>
<path d="M1806.4 86.7998C1802.93 87.3333 1797.2 88.6665 1793.73 89.8665C1790.13 91.0664 1784 92.6665 1780 93.4666C1776 94.2666 1770.53 96.1333 1768 97.4666C1765.47 98.9331 1761.33 100 1758.93 100C1756.53 100 1751.2 101.467 1746.93 103.2C1742.8 104.933 1737.2 106.8 1734.67 107.333C1732.13 107.867 1727.87 109.333 1725.33 110.667C1722.8 111.866 1718.67 113.333 1716.4 113.733C1714 114.267 1709.2 115.866 1705.87 117.467C1702.4 118.933 1697.47 120.533 1694.8 120.933C1692.13 121.333 1687.73 122.8 1685.07 124.133C1682.27 125.6 1679.33 126.667 1678.4 126.667C1677.47 126.667 1674 128.133 1670.67 129.866C1667.33 131.6 1661.73 133.467 1658.13 134C1654.53 134.4 1648.8 136.267 1645.47 138C1634.8 143.333 1627.07 146.4 1621.87 147.467C1618.93 148 1614 149.866 1610.8 151.6C1607.6 153.2 1603.73 154.667 1602.13 154.667C1600.53 154.667 1597.47 155.867 1595.07 157.2C1592.8 158.667 1588.27 160.533 1585.2 161.333C1582 162.267 1578 164 1576.27 165.467C1574.4 166.8 1570.8 168 1568.13 168C1565.47 168 1561.07 169.467 1558 171.333C1555.07 173.2 1551.73 174.667 1550.67 174.667C1549.6 174.667 1545.73 176.267 1542 178C1538.4 179.867 1534.53 181.333 1533.6 181.333C1532.67 181.333 1529.73 182.267 1526.93 183.467C1524.27 184.8 1519.33 186.8 1516 188C1512.67 189.333 1506.93 191.6 1503.07 193.067C1499.2 194.533 1494.53 196.933 1492.53 198.533C1490.53 200.133 1487.6 201.333 1486 201.333C1484.4 201.333 1480.8 202.8 1478.13 204.667C1475.47 206.533 1472.8 208 1472.27 208C1471.6 208 1469.33 210 1466.93 212.4C1459.6 219.866 1461.73 226.933 1474.8 238.4C1480.53 243.467 1486.53 244 1491.6 240C1493.47 238.533 1495.87 237.333 1496.93 237.333C1497.87 237.333 1502.13 235.467 1506.27 233.333C1510.4 231.067 1514.67 229.333 1515.87 229.333C1517.07 229.333 1519.33 228.4 1520.93 227.333C1522.53 226.267 1527.33 224.533 1531.6 223.6C1535.87 222.533 1541.33 220.8 1543.6 219.6C1545.87 218.4 1550.27 217.067 1553.47 216.533C1556.67 216 1561.47 214.533 1564 213.333C1566.53 212 1571.73 210.267 1575.6 209.333C1579.47 208.533 1583.2 206.933 1584 206C1584.8 205.067 1589.2 203.867 1593.73 203.333C1598.27 202.8 1603.87 201.333 1606 200C1608.27 198.667 1612.4 197.067 1615.33 196.533C1618.27 196.133 1622.8 194.533 1625.33 193.333C1628 192 1633.07 190.533 1636.67 190C1640.4 189.467 1645.47 187.866 1648 186.667C1650.67 185.333 1655.2 183.733 1658 183.2C1660.93 182.667 1667.07 180.8 1671.73 179.2C1676.27 177.467 1681.07 176 1682.4 176C1683.73 176 1687.2 174.8 1690 173.333C1692.93 171.867 1698.67 170.133 1702.8 169.467C1707.07 168.8 1712.67 167.066 1715.47 165.6C1718.4 164.267 1723.47 162.667 1727.07 162.267C1730.53 161.733 1735.2 160.4 1737.47 159.2C1739.73 158.133 1745.2 156.533 1749.6 155.866C1754 155.2 1759.47 153.6 1761.6 152.533C1766.93 149.733 1778.8 148.667 1782.27 150.4C1786.27 152.533 1786.93 158.4 1783.73 161.6C1780.4 164.933 1773.07 168 1768.4 168C1766.4 168 1762.8 169.2 1760.4 170.533C1758.13 172 1753.6 173.866 1750.4 174.667C1747.2 175.6 1743.73 177.067 1742.53 178.133C1741.47 179.067 1738.4 180.4 1735.87 180.8C1733.33 181.333 1728.67 183.2 1725.33 184.8C1722 186.533 1718.53 188 1717.6 188C1716.67 188 1713.07 189.467 1709.6 191.333C1706.13 193.2 1702.4 194.667 1701.2 194.667C1700 194.667 1697.47 195.866 1695.47 197.467C1693.6 198.933 1689.73 200.8 1687.07 201.6C1684.27 202.4 1680.67 204.133 1678.8 205.467C1677.07 206.933 1674.93 208 1674.13 208C1672.67 208 1669.07 209.6 1642.27 222.667C1632.93 227.333 1624.93 231.467 1624.67 232.133C1624.27 232.667 1621.73 233.866 1618.93 234.8C1616.27 235.6 1612.27 237.733 1610.27 239.467C1608.13 241.2 1605.33 242.667 1604 242.667C1602.8 242.667 1600.93 243.6 1600 244.8C1598.93 245.866 1596.4 247.733 1594.13 248.8C1577.73 256.4 1568 264.533 1568 270.667C1568 275.2 1573.47 281.333 1580.27 284.133C1582.27 284.933 1584 286.266 1584 286.933C1584 287.6 1586.53 289.333 1589.73 290.8C1597.87 294.667 1603.87 298.133 1606.4 300.4C1607.6 301.467 1611.07 303.333 1614 304.533C1616.8 305.733 1619.6 307.2 1620 307.733C1621.6 310 1630.53 315.866 1635.07 317.866C1637.73 318.933 1640 320.4 1640 321.067C1640 321.733 1641.6 322.933 1643.47 323.866C1645.33 324.667 1649.2 327.333 1652.13 329.6C1656.4 333.066 1658 335.6 1660.4 343.2C1663.2 352.4 1663.33 354.267 1663.2 414C1663.2 449.733 1662.53 484 1661.47 496C1660.67 507.333 1659.33 528 1658.67 542C1658 555.867 1656.53 572.4 1655.47 578.667C1654.4 584.933 1652.8 597.2 1651.87 606C1651.07 614.8 1649.47 624.933 1648.4 628.667C1647.47 632.267 1645.73 641.067 1644.8 648.133C1643.73 655.2 1642.4 662.133 1641.6 663.6C1640.8 665.067 1639.47 670.4 1638.53 675.467C1637.73 680.533 1636.13 686.4 1635.07 688.4C1634 690.533 1632.27 696.667 1631.33 702.133C1630.27 707.6 1628.53 713.333 1627.47 715.067C1626.4 716.667 1625.2 720.933 1624.67 724.4C1624.27 727.867 1622.4 733.867 1620.53 737.733C1618.8 741.6 1617.33 745.6 1617.33 746.667C1617.33 747.733 1616.4 750.4 1615.2 752.667C1614 754.8 1612 759.2 1610.8 762.267C1607.87 770.133 1586 794.533 1581.87 794.667C1581.07 794.667 1579.07 796.133 1577.33 798C1575.6 799.867 1573.47 801.333 1572.67 801.333C1571.87 801.333 1569.2 802.8 1566.8 804.533C1564.4 806.266 1560.53 808.133 1558 808.533C1555.6 809.067 1552.93 810.267 1552 811.333C1551.2 812.4 1548.27 813.867 1545.73 814.8C1543.07 815.6 1538.93 817.733 1536.27 819.467C1533.73 821.2 1530.93 822.667 1530 822.667C1529.07 822.667 1526.93 823.733 1525.2 825.067C1523.47 826.533 1520 828.266 1517.6 829.067C1515.2 829.867 1511.6 831.733 1509.73 833.333C1507.87 834.8 1505.2 836 1503.87 836C1502.67 836 1500.67 836.8 1499.73 837.733C1497.07 840.4 1492.53 842.667 1489.73 842.667C1488.27 842.667 1486 843.733 1484.53 845.067C1483.07 846.4 1479.87 848.266 1477.33 849.067C1474.93 850 1471.87 851.467 1470.8 852.533C1469.6 853.467 1466.4 855.067 1463.73 855.867C1461.07 856.8 1458.13 858.267 1457.33 859.333C1456.4 860.4 1453.73 861.6 1451.33 862.133C1448.8 862.533 1444.93 864.4 1442.53 866.133C1440.13 867.867 1437.47 869.333 1436.53 869.333C1435.73 869.333 1433.6 870.533 1431.73 871.867C1430 873.333 1426.13 875.067 1423.07 875.867C1420 876.667 1417.07 878 1416.67 878.667C1416.27 879.333 1410.67 882.4 1404.4 885.467C1398 888.4 1391.33 892 1389.6 893.467C1387.73 894.8 1384.93 896 1383.33 896C1381.73 896 1378.93 897.067 1377.2 898.533C1375.47 899.867 1371.87 901.6 1369.2 902.533C1366.53 903.333 1363.2 905.333 1362 906.667C1360.67 908.133 1358.27 909.333 1356.8 909.333C1355.2 909.333 1352.53 910.267 1350.67 911.333C1348.8 912.4 1346 913.867 1344.53 914.533C1331.2 920.533 1321.33 925.6 1320.67 926.533C1320.27 927.2 1317.07 928.8 1313.47 930C1309.87 931.2 1306.13 933.067 1305.33 934.133C1304.4 935.067 1302.53 936 1301.33 936C1300 936 1297.2 937.467 1295.07 939.2C1293.07 940.933 1288.93 942.667 1286 943.2C1283.07 943.733 1278.27 945.867 1275.2 947.733C1272.27 949.733 1266.93 952.8 1263.2 954.533C1259.6 956.266 1255.47 958.4 1254 959.2C1252.53 959.867 1246.27 963.067 1240.13 966.267C1233.87 969.467 1227.87 972.8 1226.8 973.867C1225.6 974.933 1222.13 976.4 1219.2 977.2C1216.13 978 1213.33 979.467 1212.93 980.533C1212.53 981.6 1210.53 982.8 1208.4 983.333C1206.4 983.733 1202 986.533 1198.67 989.467L1192.67 994.667L1192.93 1064.67L1193.33 1134.67L1196.93 1141.6C1201.47 1150.4 1212.93 1164.27 1221.47 1171.2C1225.07 1174.13 1228 1176.93 1228 1177.47C1228 1178.93 1233.07 1181.6 1238.27 1182.8C1243.33 1183.87 1253.2 1181.33 1258.4 1177.6C1265.47 1172.67 1268.8 1170.53 1272.67 1168.8C1274.93 1167.73 1278.67 1165.33 1281.2 1163.47C1283.73 1161.6 1286.53 1160 1287.33 1160C1288 1160 1293.07 1156.93 1298.53 1153.33C1304 1149.6 1308.8 1146.67 1309.33 1146.67C1310 1146.67 1314.27 1144.27 1318.8 1141.33C1323.47 1138.4 1328.8 1135.33 1330.67 1134.53C1332.53 1133.73 1335.47 1132.27 1337.33 1131.2C1340.93 1129.2 1352.4 1123.6 1364 1118.27C1368 1116.4 1373.2 1114.4 1375.33 1113.87C1377.6 1113.33 1382 1111.6 1385.33 1109.87C1388.67 1108.13 1393.07 1106.67 1395.33 1106.67C1397.47 1106.67 1402.4 1105.2 1406 1103.33C1409.73 1101.6 1413.87 1100 1415.33 1100C1416.8 1100 1421.07 1098.53 1424.67 1096.67C1428.4 1094.93 1433.07 1093.33 1435.07 1093.33C1437.07 1093.33 1442.13 1091.87 1446.4 1090.13C1450.53 1088.4 1456.67 1086.67 1460 1086.13C1463.33 1085.6 1467.33 1084.4 1468.93 1083.33C1470.4 1082.27 1475.2 1080.8 1479.6 1080.13C1483.87 1079.47 1490.4 1077.73 1494 1076.27C1497.73 1074.8 1503.33 1073.2 1506.53 1072.67C1509.73 1072.13 1514.53 1070.8 1517.07 1069.73C1519.6 1068.67 1525.33 1067.2 1529.73 1066.53C1534.13 1065.73 1539.33 1064.4 1541.33 1063.33C1543.33 1062.27 1549.07 1060.8 1554.13 1059.87C1559.2 1059.07 1564.53 1057.6 1566 1056.67C1567.47 1055.73 1572.93 1054.27 1578 1053.33C1583.2 1052.53 1590.67 1050.67 1594.67 1049.33C1598.67 1048 1605.6 1046.53 1610 1046C1614.4 1045.47 1621.6 1043.87 1626 1042.27C1632 1040.27 1637.47 1039.47 1648.27 1039.47C1660.93 1039.33 1662.8 1039.6 1665.6 1042.13C1667.33 1043.73 1670.27 1045.87 1672.13 1046.8C1678.8 1050.4 1686.67 1056 1686.67 1057.33C1686.67 1058.13 1687.33 1058.67 1688.27 1058.67C1689.07 1058.67 1692.8 1061.47 1696.67 1064.93C1700.4 1068.53 1706.13 1073.47 1709.2 1076C1716.8 1082.27 1743.87 1109.47 1748 1114.8C1752.27 1120.4 1757.33 1132.93 1757.33 1137.73C1757.33 1139.73 1756.53 1143.07 1755.47 1145.07C1754.53 1147.07 1753.2 1151.07 1752.8 1154C1752.27 1156.8 1750.27 1161.87 1748.53 1165.2C1746.8 1168.53 1745.33 1172.8 1745.33 1174.67C1745.33 1176.53 1744.4 1179.33 1743.33 1180.93C1742.13 1182.53 1740.4 1186.4 1739.2 1189.6C1738.13 1192.67 1736.4 1196.13 1735.47 1197.33C1734.4 1198.4 1733.07 1201.07 1732.53 1203.33C1732 1205.47 1729.47 1211.2 1726.93 1216C1724.27 1220.8 1719.33 1230 1715.87 1236.67C1703.87 1259.07 1702.93 1260.8 1700.8 1262.53C1699.6 1263.6 1698.67 1264.93 1698.67 1265.73C1698.67 1267.07 1692.67 1276.13 1685.47 1286C1683.2 1288.93 1680.4 1293.07 1679.2 1295.33C1676.67 1299.87 1677.47 1299.07 1660.4 1317.2C1646.8 1331.6 1627.73 1348 1624.53 1348C1623.47 1348 1621.6 1349.2 1620.27 1350.67C1619.07 1352.27 1613.47 1355.6 1608 1358.13C1602.53 1360.8 1595.87 1364.13 1593.2 1365.47C1590.53 1366.8 1587.33 1368 1586.13 1368C1584.93 1368 1580.53 1369.2 1576.27 1370.8C1563.73 1375.2 1516.93 1379.87 1476.67 1380.4C1450.53 1380.8 1423.87 1379.47 1388.67 1376C1374.27 1374.53 1370.8 1374 1350.67 1370C1338.53 1367.6 1328.8 1367.47 1326.93 1369.6C1326.13 1370.53 1323.87 1374.67 1321.73 1378.67C1319.6 1382.67 1317.2 1387.2 1316.4 1388.67C1315.6 1390.13 1314 1393.47 1312.8 1396C1309.33 1403.2 1306.67 1408.53 1305.33 1410.67C1304.67 1411.73 1301.6 1417.73 1298.67 1424C1295.73 1430.27 1292.4 1436.8 1291.47 1438.67C1290.4 1440.53 1287.33 1446.53 1284.67 1452C1282 1457.47 1279.2 1462.93 1278.53 1464C1277.87 1465.07 1276.53 1467.73 1275.47 1470C1271.33 1479.07 1270.4 1480.8 1268.13 1484.67C1266.93 1486.8 1264.53 1490.8 1262.93 1493.33C1261.33 1495.87 1260 1498.93 1260 1500.13C1260 1501.2 1258.53 1504.13 1256.67 1506.67C1254.8 1509.2 1253.33 1512 1253.33 1513.07C1253.33 1514.13 1251.87 1516.67 1250 1518.93C1248.13 1521.07 1246.67 1523.87 1246.67 1525.07C1246.67 1526.4 1245.2 1529.47 1243.6 1532C1241.87 1534.53 1240 1538.4 1239.47 1540.53C1238.93 1542.53 1237.47 1545.87 1236.13 1547.87C1229.33 1557.87 1226.8 1562.27 1226 1565.6C1225.47 1567.47 1224 1570.13 1222.53 1571.47C1221.2 1572.67 1220 1574.53 1220 1575.47C1220 1576.27 1217.87 1579.6 1215.33 1582.67C1212.8 1585.73 1210.67 1588.67 1210.67 1589.33C1210.67 1589.87 1208.93 1591.07 1206.93 1591.87C1203.07 1593.47 1194.8 1591.47 1188.53 1587.33C1186.93 1586.27 1182 1584.8 1177.6 1584.13C1173.2 1583.47 1167.33 1581.73 1164.53 1580.27C1161.6 1578.8 1156.67 1577.2 1153.33 1576.67C1150.13 1576.13 1146.13 1574.8 1144.53 1573.87C1143.07 1572.8 1138.27 1571.33 1133.87 1570.53C1129.6 1569.73 1124.4 1568.27 1122.4 1567.2C1120.4 1566.13 1114.4 1564.8 1109.07 1564C1103.73 1563.2 1095.6 1561.73 1090.93 1560.53C1078.67 1557.6 1048.53 1557.33 1037.33 1560.27C1032.53 1561.6 1024.53 1563.2 1019.6 1564C1014.53 1564.8 1009.2 1566.27 1007.6 1567.2C1006 1568.27 1001.73 1569.73 998 1570.53C994.401 1571.2 988.934 1573.07 986 1574.67C983.201 1576.13 979.201 1577.33 977.201 1577.33C975.334 1577.33 972.267 1578.4 970.534 1579.73C968.8 1581.07 963.867 1582.93 959.734 1583.87C955.6 1584.8 951.601 1586.27 950.667 1587.2C949.867 1588.27 946.534 1589.73 943.201 1590.53C939.867 1591.47 935.734 1592.93 934.267 1594C926.134 1599.07 916.267 1597.33 911.334 1589.73C910 1587.73 908 1585.33 907.067 1584.67C905.201 1583.33 904.4 1582 899.067 1572.4C897.467 1569.47 895.334 1566.4 894.134 1565.47C893.067 1564.53 891.734 1561.87 891.334 1559.6C890.534 1555.73 888.134 1551.47 881.334 1541.33C880.134 1539.47 878.401 1535.73 877.467 1533.07C876.534 1530.27 875.201 1527.6 874.401 1527.2C873.734 1526.8 872 1523.87 870.534 1520.8C869.201 1517.87 866.267 1512.27 864 1508.67C861.734 1504.93 859.334 1500.53 858.534 1498.67C857.734 1496.8 856.267 1493.87 855.201 1492C854.267 1490.13 852.401 1486.53 851.201 1484C850 1481.47 848.134 1478.4 847.201 1477.2C846.134 1476 844 1472.67 842.534 1469.87C840.934 1466.93 836.8 1458.93 833.067 1452C829.334 1445.07 825.2 1437.07 823.867 1434.4C822.534 1431.73 820.8 1429.2 820.134 1428.8C819.467 1428.27 817.6 1425.33 816 1422C814.401 1418.67 812.534 1416 812 1416C811.334 1416 810.534 1414.8 810 1413.33C809.067 1410.27 801.467 1397.6 798.667 1394.27C786.267 1379.73 781.867 1377.87 765.334 1379.87C759.067 1380.53 749.867 1381.6 744.667 1382C739.6 1382.53 730.267 1384 724 1385.47C704.667 1389.87 663.734 1391.33 607.2 1389.6C563.067 1388.27 556.4 1387.73 542 1384.67C533.2 1382.8 524.267 1381.33 522.267 1381.33C520.134 1381.33 516.134 1380.13 513.467 1378.8C505.334 1374.53 490.934 1368 489.6 1368C488.934 1368 487.467 1367.07 486.534 1365.73C485.467 1364.53 483.067 1362.93 481.2 1362.13C477.334 1360.53 465.2 1350.27 456.8 1341.6C453.867 1338.4 448.8 1333.2 445.734 1330C442.667 1326.8 439.467 1322.8 438.534 1321.07C437.6 1319.47 435.867 1316.8 434.534 1315.33C430.667 1310.93 419.467 1296.93 417.067 1293.33C415.734 1291.47 412.934 1287.6 410.8 1284.67C408.534 1281.73 405.867 1277.33 404.8 1275.07C403.734 1272.67 402.134 1270 401.334 1269.07C398.4 1265.47 393.2 1256.93 391.334 1252.53C390.267 1250 388.934 1248 388.134 1248C387.467 1248 386.134 1245.73 385.334 1242.93C384.4 1240.27 382.934 1237.07 382 1236C381.2 1234.93 378.267 1229.2 375.467 1223.33C372.8 1217.47 369.334 1210.4 368 1207.73C366.534 1205.07 365.334 1202 365.334 1201.07C365.334 1200.13 363.867 1196.27 362 1192.67C360.267 1188.93 358.667 1185.07 358.667 1184C358.667 1182.93 357.2 1177.73 355.334 1172.67C352.934 1165.73 352 1160.53 352 1152.53C352 1142.67 352.4 1141.2 356.267 1135.47C362.667 1125.73 374.267 1113.73 402.134 1088C405.734 1084.67 410.134 1080.93 412 1079.73C413.867 1078.53 417.734 1075.33 420.667 1072.4C423.6 1069.6 427.734 1066.13 429.867 1064.67C432 1063.2 435.334 1060.8 437.334 1059.33C457.467 1044.8 462.667 1043.2 484 1045.47C491.734 1046.27 501.6 1048 506 1049.33C510.4 1050.67 516.134 1052.13 518.667 1052.67C521.2 1053.07 526.4 1054.53 530 1055.6C533.734 1056.8 541.467 1058.8 547.334 1060.13C553.2 1061.33 560.4 1063.33 563.334 1064.53C566.267 1065.6 570.534 1066.53 572.934 1066.67C575.334 1066.67 580.4 1067.87 584.267 1069.47C588.134 1070.93 594.534 1072.8 598.667 1073.6C602.667 1074.27 607.467 1075.73 609.334 1076.67C611.2 1077.6 617.067 1079.07 622.134 1079.73C627.334 1080.53 633.334 1082 635.467 1083.07C637.6 1084.13 641.6 1085.33 644.4 1085.87C647.2 1086.4 652.934 1088 657.334 1089.33C661.734 1090.67 669.067 1092.53 673.6 1093.33C678.134 1094.27 684 1096 686.534 1097.2C689.2 1098.53 694.267 1100.13 697.734 1100.53C701.201 1101.07 706.667 1102.67 709.734 1104C712.801 1105.47 716.534 1106.67 718 1106.67C719.467 1106.67 723.734 1108.13 727.334 1110C731.067 1111.73 735.334 1113.33 736.934 1113.33C740.267 1113.33 754.267 1118.4 764.667 1123.33C768.4 1125.2 773.201 1126.93 775.467 1127.33C777.867 1127.73 780.8 1129.33 782 1130.67C783.201 1132 786.134 1133.6 788.534 1134.13C790.8 1134.53 795.334 1136.4 798.667 1138.13C802 1139.87 805.334 1141.33 806.134 1141.33C806.934 1141.33 808.4 1142.27 809.334 1143.2C810.134 1144.27 813.067 1145.87 815.734 1146.8C818.401 1147.73 822.401 1149.73 824.401 1151.47C826.534 1153.2 828.934 1154.67 830 1154.67C830.934 1154.67 832.4 1155.6 833.334 1156.67C834.267 1157.73 837.467 1159.87 840.534 1161.33C846 1164 852.267 1167.73 859.467 1172.53C870 1179.6 872.934 1181.33 873.867 1181.33C874.4 1181.33 877.067 1183.2 879.867 1185.33C886.267 1190.53 893.334 1191.87 896.667 1188.53C898 1187.2 904.8 1179.2 911.867 1170.8L924.667 1155.47L925.067 1124.13C925.201 1106.8 924.801 1074.67 924.134 1052.67C922.401 997.067 920.8 993.2 897.334 981.867C891.867 979.2 878.4 972.533 867.334 967.2C856.4 961.733 846.667 957.333 845.867 957.333C845.067 957.333 842.8 956.133 840.934 954.667C839.067 953.067 835.467 951.2 833.067 950.4C830.667 949.6 827.201 947.867 825.467 946.533C823.867 945.2 820.267 943.733 817.467 943.2C814.8 942.667 811.067 941.2 809.067 939.867C807.201 938.4 805.067 937.333 804.401 937.333C803.334 937.333 775.867 924.133 765.734 918.8C759.067 915.2 745.6 909.333 744.134 909.333C743.334 909.333 736.134 906 728.134 902C720.134 898 713.067 894.667 712.267 894.667C711.6 894.667 710.267 893.733 709.334 892.667C708.4 891.6 705.201 890 702.134 889.2C699.201 888.4 695.734 886.933 694.667 886C693.6 884.933 690.134 883.6 687.067 882.933C684 882.267 679.867 880.4 677.867 878.8C675.867 877.333 673.334 876 672.134 876C670.934 876 667.734 874.533 665.067 872.667C662.4 870.8 659.6 869.333 658.934 869.333C658.267 869.333 656.267 868.133 654.4 866.8C652.667 865.333 648.534 863.6 645.334 862.667C642 861.867 638.134 860.4 636.667 859.467C635.2 858.533 631.6 856.933 628.667 856C625.734 855.067 621.867 853.2 620.134 851.867C618.4 850.4 616.267 849.333 615.334 849.333C614.4 849.333 611.6 847.867 608.934 846.133C606.267 844.267 602 842.4 599.467 842C596.934 841.467 593.867 839.867 592.534 838.533C591.334 837.2 589.6 836 588.667 836C587.734 836 584.4 834.533 581.067 832.8C577.867 831.067 573.734 829.2 571.867 828.667C570.134 828.133 567.2 826.533 565.467 825.2C563.734 823.733 561.334 822.667 560.134 822.667C558 822.667 529.6 809.067 524 805.2C522.134 804 517.067 800.667 512.667 797.867C503.467 792 496.8 785.2 494.4 779.333C493.6 777.2 491.467 773.6 489.734 771.6C488 769.467 486.667 766.533 486.667 764.8C486.667 763.2 485.467 759.6 484 756.667C482.534 753.867 480.667 749.467 479.867 746.8C479.067 744.133 477.467 740.667 476.534 739.067C475.467 737.467 473.867 732.4 472.8 728C471.734 723.467 470.134 719.067 469.334 718C468.4 716.933 466.667 712 465.334 707.067C460.667 690.266 456.534 676.667 455.067 674C454.267 672.533 452.934 666.8 452.134 661.2C451.467 655.733 449.867 649.067 448.8 646.533C447.734 643.867 446.4 638.533 446 634.533C445.467 630.533 444 622.533 442.667 616.667C441.334 610.8 439.467 599.067 438.667 590.667C437.867 582.267 436.4 572.267 435.334 568.667C434.4 564.933 432.8 553.333 432 542.667C431.2 532 429.734 515.467 428.667 506C427.2 493.333 426.534 469.6 426.267 417.333L426 346L429.6 339.866C433.2 334 442.4 325.333 445.2 325.333C446 325.333 448.667 323.467 451.067 321.333C453.6 319.067 456.534 317.333 457.6 317.333C458.8 317.333 461.2 316.133 463.2 314.533C465.2 313.067 470.8 309.6 475.734 307.067C480.667 304.533 485.334 301.6 486 300.8C486.8 299.866 489.467 298.4 492.134 297.467C494.8 296.667 498.134 294.667 499.334 293.333C500.667 291.867 502.4 290.667 503.067 290.667C503.867 290.667 505.6 289.6 506.934 288.4C509.6 286 515.6 282.133 524.267 277.333C528.4 275.2 529.334 273.866 529.334 270.667C529.334 268.4 528.267 265.733 527.067 264.667C521.2 259.467 516.4 256.267 513.334 255.467C510.267 254.533 497.734 249.067 488.934 244.533C486.8 243.467 484.4 242.667 483.467 242.667C482.534 242.667 479.867 241.2 477.334 239.333C474.8 237.467 471.867 236 470.8 236C469.6 236 465.067 234.133 460.667 232C456.267 229.867 451.734 228 450.667 228C449.6 228 446.267 226.4 443.334 224.667C440.4 222.8 437.067 221.333 435.867 221.333C434.667 221.333 432.267 220.266 430.534 218.8C428.8 217.467 424.934 216 422 215.467C419.2 214.933 415.2 213.333 413.334 212C409.334 209.2 391.6 201.333 389.2 201.333C388.4 201.333 382.534 198.8 376.134 195.866C369.867 192.8 361.867 189.467 358.534 188.533C355.067 187.467 351.6 185.733 350.667 184.667C349.734 183.6 346.934 182.4 344.134 181.866C341.467 181.333 337.2 179.866 334.667 178.533C332.134 177.2 327.867 175.2 325.334 174C322.8 172.933 318.267 170.667 315.334 168.933C310.4 166.266 310 165.467 309.867 160C309.6 150.667 310.8 149.333 319.734 149.333C324.4 149.333 329.6 150.4 333.067 152C336.134 153.333 340.934 154.933 343.734 155.333C349.067 156.267 368 161.733 376.667 164.933C379.6 166 386.8 168 392.667 169.467C404.134 172 420.134 177.333 426.267 180.4C428.267 181.467 432.934 182.8 436.667 183.333C440.267 183.867 444.934 185.067 447.067 186.133C449.067 187.2 454.134 188.8 458.267 189.467C462.534 190.267 468.134 192 470.934 193.467C473.6 194.8 476.934 196 478.267 196C479.734 196 483.2 197.2 486 198.8C488.934 200.266 494.667 202.133 498.667 202.8C502.667 203.6 507.867 205.067 510 206C515.6 208.667 536.667 215.467 545.067 217.333C548.8 218.267 552.267 219.467 552.667 220C553.067 220.533 556.534 221.733 560.267 222.667C564.134 223.6 569.2 225.333 571.334 226.667C573.6 228 577.867 229.733 581.067 230.667C584.267 231.467 588.8 233.333 591.067 234.8C593.467 236.133 596.267 237.333 597.2 237.333C598.267 237.333 601.467 238.933 604.134 240.8C610.667 245.333 616 244.267 621.067 237.6C623.067 234.933 625.334 232 626.134 231.333C626.934 230.533 628.934 227.6 630.534 224.8C633.467 219.6 633.467 219.467 630.934 216.133C628 212.267 615.467 203.066 611.334 201.866C609.867 201.467 604.534 199.066 599.334 196.667C594.267 194.133 586.134 190.933 581.334 189.333C576.534 187.867 570.534 185.467 567.867 184C565.2 182.533 562.134 181.333 561.2 181.333C560.134 181.333 556.4 179.867 552.667 178C549.067 176.267 545.067 174.667 543.867 174.667C542.667 174.667 540.134 173.467 538.267 172C536.4 170.533 531.867 168.667 528.134 168C524.4 167.333 518.934 165.467 516.134 164C513.2 162.533 510 161.333 509.067 161.333C508.134 161.333 504.4 159.733 500.667 158C497.067 156.133 492.934 154.667 491.467 154.667C490.134 154.667 486.8 153.467 484.134 152C481.467 150.533 475.734 148.133 471.334 146.8C466.934 145.333 459.2 142.533 454 140.667C448.934 138.667 442 136.133 438.667 135.067C435.334 134 429.334 131.6 425.2 129.866C421.067 128.133 416.934 126.667 416.134 126.667C415.2 126.667 412.267 125.467 409.6 124.133C406.8 122.667 402.134 121.067 399.334 120.533C396.4 120.133 392.267 118.667 390 117.6C387.867 116.4 383.067 114.8 379.334 113.866C372.534 112.133 347.867 103.6 345.6 102.267C344.934 101.733 340.267 100.8 335.2 100C330.134 99.2 325.2 97.7332 324 96.7998C322.934 95.8665 317.867 93.9998 312.667 92.7998C307.6 91.5999 300 89.7332 296 88.6665C286.534 85.9998 272.134 85.9998 268.4 88.6665C266.8 89.7332 263.334 94.6665 260.667 99.4666C256 107.866 255.734 108.933 255.067 123.733C254.267 140.8 256.134 167.467 259.2 182C260.267 187.2 261.734 196 262.534 201.733C263.334 207.467 264.8 214.933 266 218.4C267.067 221.866 268.534 230.8 269.2 238.133C269.867 245.6 271.334 253.467 272.4 255.467C273.467 257.6 275.067 264.4 275.867 270.667C276.667 276.933 278.267 284.4 279.2 287.333C280.267 290.267 281.467 295.6 282 299.333C282.934 306.933 288.134 330.533 292 344.933C293.467 350.266 295.334 358.933 296 364C296.8 369.2 298.267 375.2 299.334 377.2C300.4 379.333 301.867 386.266 302.667 392.667C303.467 399.2 304.667 405.6 305.467 406.933C306.267 408.267 307.734 414 308.8 419.6C309.867 425.2 311.6 432.267 312.534 435.333C313.6 438.4 315.2 445.867 316 452C316.8 458 318.534 465.733 319.867 469.2C321.2 472.533 322.8 479.467 323.334 484.667C323.867 489.733 325.334 496.667 326.667 500C327.867 503.333 329.467 509.467 330 513.733C330.4 518 331.734 523.6 332.8 526.133C333.867 528.667 335.6 539.333 336.667 549.733C337.734 560.133 339.2 571.867 340 575.867C341.6 584.667 341.6 604 340 617.333C339.2 622.8 337.734 636.933 336.667 648.667C335.6 660.4 333.867 672.8 332.8 676.267C331.734 679.733 330.4 686.4 330 690.933C329.467 695.6 328 703.2 326.667 708C325.2 712.8 323.467 721.6 322.8 727.6C322 733.6 320.534 740.667 319.334 743.467C318.267 746.133 316.667 753.733 316 760.533C315.2 767.2 313.467 776 312 780C310.667 784 309.2 790.667 308.667 794.8C308.267 798.8 306.934 803.867 305.867 806C304.8 808 303.334 814.933 302.8 821.2C302.134 827.467 300.4 837.2 298.8 842.667C297.334 848.133 295.2 858.4 294 865.333C292.8 872.267 291.2 881.333 290.534 885.333C286.8 906.133 288.134 1073.6 292 1092C292.667 1095.33 294.134 1108.8 295.334 1122C296.4 1135.2 298.267 1150.53 299.334 1156C300.4 1161.47 302 1176.4 302.667 1189.2C303.467 1202 304.8 1216.8 305.867 1221.87C306.934 1227.07 308.534 1239.07 309.334 1248.67C310.134 1258.13 311.6 1269.87 312.667 1274.67C313.734 1279.47 315.2 1291.2 316 1300.93C316.8 1310.67 318.267 1321.33 319.334 1324.8C320.4 1328.27 321.6 1334.4 322 1338.53C323.067 1347.87 330.267 1372.67 333.6 1378C334.934 1380.13 336 1383.07 336 1384.27C336 1386.4 343.2 1401.73 354.8 1424C357.734 1429.47 361.2 1436.53 362.667 1439.6C366.8 1448 391.334 1484.93 400.667 1496.67C402.134 1498.4 408.134 1506 414 1513.47C427.467 1530.53 466.267 1569.73 476.4 1576.4C480.534 1579.2 484 1582 484 1582.67C484 1583.33 486 1584.4 488.534 1585.33C490.934 1586.13 494.134 1588 495.467 1589.47C496.8 1590.93 501.2 1594 505.2 1596.27C509.334 1598.53 514.4 1601.87 516.4 1603.6C518.534 1605.33 520.667 1606.67 521.334 1606.67C523.067 1606.67 536.534 1615.07 537.734 1616.93C538.267 1617.87 539.734 1618.67 540.8 1618.67C543.867 1618.67 561.734 1637.2 564.534 1643.33C566 1646.27 568.134 1650 569.467 1651.73C570.8 1653.47 572.267 1656.67 572.667 1659.07C573.2 1661.47 574.4 1664.27 575.334 1665.33C577.067 1667.47 580.267 1673.2 585.734 1684.8C587.6 1688.53 589.6 1692 590.4 1692.53C591.2 1692.93 592.267 1695.33 592.8 1697.73C593.2 1700 594.8 1703.33 596.134 1705.07C597.467 1706.8 598.8 1709.87 599.334 1711.87C599.734 1714 601.334 1716.8 602.8 1718.13C604.134 1719.33 605.334 1721.07 605.334 1721.87C605.334 1723.6 613.867 1740.67 615.867 1743.2C616.667 1744.13 618.134 1747.47 619.334 1750.53C620.4 1753.6 622.534 1757.73 624 1759.6C625.467 1761.47 626.667 1764 626.667 1765.2C626.667 1766.53 628.134 1769.47 630 1772C631.867 1774.53 633.334 1777.33 633.334 1778.4C633.334 1779.47 634.534 1782 636 1784C637.467 1786.13 639.067 1789.6 639.467 1791.73C640 1794 641.467 1797.07 642.934 1798.67C644.267 1800.13 646.134 1803.33 646.934 1805.73C647.734 1808 649.467 1811.47 650.934 1813.2C652.267 1814.93 653.334 1817.73 653.334 1819.47C653.334 1821.07 654.8 1824.27 656.667 1826.4C658.534 1828.67 660 1831.07 660 1831.73C660 1833.6 669.334 1851.87 670.8 1852.67C671.467 1853.07 672.667 1856 673.467 1859.07C674.267 1862.13 676 1866.13 677.2 1868C678.534 1869.87 680.267 1873.33 681.2 1875.6C682.267 1878 683.467 1880 684.134 1880C684.667 1880 685.867 1882.53 686.8 1885.6C687.6 1888.67 689.334 1892.67 690.8 1894.4C692.134 1896.27 693.334 1898.67 693.334 1899.73C693.334 1901.6 695.467 1906.4 704 1924.67C705.334 1927.6 707.467 1934.53 708.8 1940.13C710.8 1949.6 710.8 1950.8 708.667 1960.13C707.334 1965.6 705.201 1971.87 704 1974.13C702.667 1976.4 701.2 1980.4 700.667 1982.8C700.134 1985.33 698.667 1989.07 697.334 1991.33C696 1993.47 694.534 1997.33 694 1999.87C693.467 2002.4 691.6 2007.07 689.867 2010.4C688.134 2013.73 686.667 2017.73 686.667 2019.2C686.667 2020.8 685.467 2024.4 684 2027.33C682.534 2030.13 680.934 2034.67 680.534 2037.2C680 2039.87 678.534 2044.13 677.334 2046.67C676 2049.2 674.267 2054.53 673.467 2058.4C672.667 2062.27 671.201 2067.07 670.134 2069.07C669.067 2071.2 667.467 2076.53 666.667 2081.2C665.867 2085.87 664.267 2090.93 663.334 2092.53C662.267 2094.13 660.8 2100.13 660.134 2106C659.334 2111.87 657.734 2119.6 656.667 2123.33C651.6 2140 650.8 2190.27 655.334 2202.8C656.534 2206 658.4 2212 659.6 2216C660.667 2220 662.667 2224.4 664.134 2225.73C665.467 2227.07 666.667 2228.67 666.667 2229.33C666.667 2231.33 678.4 2248.53 687.067 2259.2C689.6 2262.27 692.134 2265.73 692.8 2266.93C695.067 2271.07 706.667 2283.6 728.8 2305.73C750.667 2327.6 754.667 2331.33 762.667 2337.33C765.067 2339.2 769.467 2342.4 772.267 2344.67C783.467 2353.47 785.201 2354.67 786.534 2354.67C787.201 2354.67 788.667 2355.87 789.734 2357.33C790.667 2358.67 792.934 2360.53 794.8 2361.33C796.534 2362 800.667 2364.8 804 2367.33C807.334 2370 812.4 2373.33 815.334 2374.8C818.267 2376.27 823.067 2379.07 826 2380.8C828.934 2382.53 834 2385.33 837.201 2386.8C840.534 2388.4 844.267 2390.67 845.6 2392C847.067 2393.33 850 2394.67 852.267 2395.2C854.401 2395.6 857.867 2397.07 859.734 2398.53C861.734 2399.87 864.801 2401.47 866.667 2402C868.534 2402.53 871.467 2404.13 873.201 2405.47C874.934 2406.93 877.334 2408 878.667 2408C879.867 2408 883.601 2409.47 886.934 2411.2C890.267 2412.93 894.934 2414.8 897.467 2415.33C900 2415.87 904.134 2417.33 906.667 2418.67C909.201 2419.87 913.734 2421.47 916.667 2421.87C919.467 2422.4 924 2424 926.667 2425.33C929.201 2426.67 934.934 2428.13 939.334 2428.67C943.734 2429.07 950.401 2430.53 954 2431.73C960 2433.73 969.201 2434 1038 2434C1107.07 2433.87 1118.93 2433.6 1149.33 2430.8C1170.8 2428.93 1186.53 2426.93 1192 2425.2C1196.8 2423.87 1202.8 2422.4 1205.33 2421.87C1207.87 2421.47 1213.6 2420 1218 2418.53C1222.4 2417.2 1229.33 2415.2 1233.33 2414.13C1244.4 2411.2 1253.2 2408.13 1260.8 2404.53C1264.53 2402.8 1268.27 2401.33 1269.07 2401.33C1269.87 2401.33 1273.33 2399.87 1276.8 2398C1280.27 2396.13 1284.13 2394.67 1285.33 2394.67C1286.67 2394.67 1289.07 2393.47 1290.93 2392.13C1292.67 2390.67 1299.33 2386.93 1305.73 2383.73C1324.53 2374.53 1327.6 2372.8 1330.27 2370.4C1331.73 2369.07 1333.33 2368 1333.87 2368C1334.93 2368 1355.6 2353.73 1358.93 2350.67C1360.13 2349.6 1367.2 2343.87 1374.67 2338C1389.07 2326.8 1419.07 2297.6 1430 2284.4C1433.6 2280.13 1437.87 2275.2 1439.47 2273.33C1452.8 2258.67 1457.2 2253.33 1458 2250.8C1458.4 2249.33 1459.33 2248 1460 2248C1460.67 2248 1462.53 2245.73 1464 2243.07C1465.47 2240.27 1469.07 2234.67 1472 2230.67C1474.93 2226.67 1477.33 2222.8 1477.33 2222.27C1477.33 2221.73 1478.53 2219.47 1480.13 2217.47C1484.53 2211.6 1489.47 2198.8 1490.93 2190C1492.8 2178.8 1491.2 2140.67 1488.53 2132.53C1487.33 2128.93 1485.33 2120.27 1484 2113.33C1481.2 2098.8 1478 2086 1475.07 2077.33C1474 2074 1472.4 2068.27 1471.33 2064.53C1470.4 2060.8 1468.4 2054.27 1466.8 2050.13C1465.33 2046 1464 2041.6 1464 2040.27C1464 2039.07 1462.53 2034.93 1460.67 2031.33C1458.93 2027.6 1457.33 2023.73 1457.33 2022.67C1457.33 2021.6 1455.73 2017.6 1454 2014C1452.13 2010.27 1450.67 2006.13 1450.67 2004.67C1450.67 2003.2 1449.07 1998.93 1447.33 1995.33C1445.47 1991.6 1444 1987.47 1444 1986.13C1444 1984.8 1442.53 1980.53 1440.8 1976.8C1433.07 1960.27 1430.67 1952.13 1430.67 1942.27C1430.67 1936.4 1431.47 1931.33 1432.67 1929.33C1434.8 1925.6 1434.8 1925.6 1440.27 1912.67C1442.53 1907.47 1445.73 1900.27 1447.47 1896.67C1454 1882.8 1457.33 1874.8 1457.33 1872.93C1457.33 1871.87 1458.53 1869.47 1460.13 1867.47C1461.6 1865.6 1463.47 1861.73 1464.27 1858.93C1464.93 1856.27 1466.4 1853.07 1467.33 1852C1468.27 1850.93 1469.73 1847.6 1470.67 1844.67C1471.6 1841.73 1473.2 1838.4 1474.13 1837.2C1475.2 1836 1476.93 1832 1478 1828.27C1479.2 1824.4 1480.67 1821.33 1481.33 1821.33C1481.87 1821.33 1483.2 1819.07 1484.13 1816.27C1484.93 1813.6 1486.8 1809.73 1488.13 1807.87C1489.47 1806 1490.93 1802.8 1491.47 1800.53C1492 1798.4 1493.47 1795.6 1494.67 1794.4C1496 1793.2 1497.47 1789.73 1498 1786.8C1498.53 1783.87 1499.73 1780.8 1500.67 1780C1501.73 1779.2 1503.2 1776.27 1504.13 1773.6C1505.07 1770.93 1506.8 1767.33 1508.13 1765.6C1509.47 1763.87 1510.93 1760.67 1511.47 1758.27C1511.87 1755.87 1513.47 1752.4 1514.8 1750.4C1516.27 1748.53 1517.33 1746.53 1517.33 1746C1517.33 1745.07 1526.8 1725.47 1529.33 1721.33C1531.73 1717.33 1538.67 1701.73 1538.67 1700.4C1538.67 1699.73 1539.87 1698 1541.33 1696.67C1542.8 1695.33 1544 1693.47 1544 1692.67C1544 1691.73 1545.87 1687.73 1548 1683.6C1550.27 1679.47 1552 1675.47 1552 1674.8C1552 1674 1553.47 1671.2 1555.33 1668.53C1557.2 1665.87 1558.67 1662.8 1558.67 1661.73C1558.67 1660.67 1559.87 1658.27 1561.33 1656.4C1562.8 1654.53 1564.67 1650.53 1565.47 1647.47C1566.27 1644.53 1567.73 1641.07 1568.67 1640C1569.6 1638.93 1571.33 1635.87 1572.67 1633.33C1578.27 1621.2 1582.4 1615.73 1590.13 1609.6C1595.87 1605.07 1604 1600 1605.33 1600C1606 1600 1608.53 1598.27 1610.93 1596.27C1617.07 1591.2 1625.87 1585.33 1627.6 1585.33C1628.4 1585.33 1629.87 1584.4 1630.8 1583.2C1631.73 1582 1636.53 1578.53 1641.33 1575.33C1646.13 1572.13 1650.93 1568.67 1651.87 1567.47C1652.8 1566.27 1654.27 1565.33 1654.93 1565.33C1658.53 1565.33 1700 1527.2 1700 1523.87C1700 1523.33 1702.93 1519.73 1706.67 1515.73C1710.27 1511.87 1713.33 1508.13 1713.33 1507.6C1713.33 1507.07 1716.4 1502.93 1720 1498.53C1723.73 1494.13 1726.67 1489.73 1726.67 1488.8C1726.67 1487.73 1727.6 1486.27 1728.8 1485.2C1729.87 1484.27 1732.8 1480.53 1735.2 1476.8C1737.6 1473.07 1740.67 1468.27 1742.13 1466.13C1745.6 1460.8 1751.87 1450 1759.2 1436.67C1760.4 1434.4 1761.33 1432 1761.33 1431.2C1761.33 1430.4 1762.53 1428.67 1763.87 1427.47C1765.33 1426.13 1766.8 1423.47 1767.33 1421.6C1767.73 1419.6 1769.2 1416.53 1770.4 1414.67C1776 1406 1779.47 1398.4 1786.67 1378C1788.27 1373.6 1790.67 1367.47 1792.13 1364.4C1793.47 1361.2 1794.67 1357.47 1794.67 1356C1794.67 1354.4 1795.87 1351.07 1797.2 1348.27C1798.93 1344.93 1800.27 1337.87 1801.2 1327.07C1802 1318.13 1803.47 1307.07 1804.53 1302.4C1805.6 1297.73 1806.8 1288.27 1807.33 1281.33C1808.27 1266.27 1812 1233.07 1812.8 1231.87C1813.07 1231.33 1814 1219.07 1814.67 1204.4C1815.47 1189.87 1816.93 1172 1818 1164.67C1821.07 1143.47 1822.8 1098.53 1822.8 1034.67C1822.93 971.333 1821.73 946.133 1817.33 924.267C1815.87 916.8 1814.67 907.733 1814.67 904.267C1814.67 900.8 1814 895.867 1813.33 893.333C1812.53 890.8 1810.13 880.267 1808 870C1801.47 839.067 1799.07 828.8 1797.6 825.2C1796.8 823.2 1795.47 816.667 1794.67 810.533C1793.73 804.4 1792.27 797.467 1791.2 795.067C1790.27 792.667 1789.07 787.867 1788.53 784.4C1788 780.933 1786.27 773.733 1784.67 768.667C1782.93 763.467 1781.2 755.2 1780.67 750C1780.13 744.933 1778.93 738.533 1777.87 736C1775.2 728.933 1769.33 702.267 1767.33 688C1766.4 681.067 1764.93 673.867 1764.27 672C1760.8 662.8 1759.47 641.867 1759.47 596C1759.6 549.2 1760 543.067 1764.67 521.333C1765.73 516.533 1767.2 508.133 1768 502.667C1768.8 497.2 1770.27 490 1771.33 486.667C1772.27 483.333 1773.87 476.267 1774.67 470.933C1775.47 465.467 1776.93 458.933 1778.13 456.267C1779.2 453.6 1780.4 447.867 1780.8 443.333C1781.33 438.933 1782.8 431.067 1784.4 426C1785.87 420.8 1787.87 412.8 1788.8 408C1793.07 385.6 1797.33 366.4 1798.53 364.267C1799.2 363.067 1800.27 357.2 1801.07 351.333C1801.87 345.467 1803.33 338.533 1804.4 336C1805.47 333.467 1807.07 326.667 1808 320.933C1808.8 315.2 1810.4 308.533 1811.33 306.133C1812.4 303.733 1813.87 296.533 1814.67 290.267C1815.47 284 1816.93 276.667 1818.13 273.866C1819.33 271.2 1820.8 265.2 1821.47 260.8C1822.13 256.266 1823.6 250 1824.67 246.667C1825.73 243.333 1827.47 235.2 1828.53 228.667C1829.6 222 1831.33 212.8 1832.4 208C1833.6 203.2 1835.07 191.866 1836 182.667C1836.8 173.467 1838.13 161.6 1838.93 156.267C1840.93 143.2 1839.6 117.6 1836.27 106.4C1833.87 97.7332 1828.13 88.9331 1824 87.4666C1820.13 86.1333 1812.67 85.7332 1806.4 86.7998Z" fill="black"/>
<path d="M998.4 163.333C997.333 164.4 971.2 166.533 940 168C924.267 168.8 908.934 169.867 906 170.667C903.067 171.333 893.2 172.933 884 174.133C874.8 175.2 864 177.067 860 178.133C855.867 179.067 848.134 180.533 842.667 181.333C837.2 182.133 829.067 183.867 824.667 185.2C820.267 186.533 813.067 188.133 808.667 188.667C804.267 189.2 799.2 190.4 797.334 191.333C795.467 192.267 790.134 193.867 785.467 194.667C780.8 195.467 775.734 196.933 774.134 198C772.534 198.933 768.667 200.133 765.334 200.667C758.534 201.6 736.8 208.4 728.667 212C725.734 213.2 721.2 214.8 718.667 215.333C716.134 215.867 711.867 217.467 709.334 218.8C706.8 220.267 703.467 221.333 701.867 221.333C700.4 221.333 696.4 222.8 693.2 224.4C690 226.133 685.6 228 683.467 228.533C681.467 229.067 678.134 230.533 676.134 231.867C674.267 233.333 670 234.8 666.8 235.2C663.6 235.733 659.333 237.2 657.467 238.4C654.4 240.533 638.934 248.267 613.334 260.4C608.534 262.667 603.734 265.2 602.667 266.133C601.6 267.067 598.267 268.4 595.2 269.2C592.267 270 588.667 271.867 587.334 273.333C586 274.8 584 276 582.8 276C581.6 276 578.934 277.2 576.667 278.667C574.534 280.133 564.667 285.333 554.934 290.267C545.2 295.333 534.4 300.933 530.934 302.933C527.467 304.933 523.2 307.333 521.333 308.267C519.467 309.2 516.267 311.333 514.267 312.933C512.133 314.667 509.334 316 508 316C506.667 316 503.867 317.467 501.734 319.067C498.133 322.133 494.934 324 485.334 328.933C482.8 330.133 479.6 332 478.4 333.067C477.2 334.133 474.4 335.867 472.267 337.067C460.534 343.733 459.067 345.333 456 353.733C453.067 361.467 453.067 363.333 453.733 387.333C455.333 440.667 458.8 504.133 461.334 524C462.667 535.333 464.267 549.467 464.667 555.2C465.067 561.067 466.667 570.667 468 576.533C469.334 582.533 470.934 591.867 471.334 597.333C471.867 602.8 473.2 609.6 474.133 612.4C475.2 615.2 476.667 621.6 477.467 626.4C478.267 631.333 480 638.267 481.334 642C482.534 645.6 484.133 651.067 484.534 653.867C485.6 659.733 492.534 681.067 495.334 687.333C496.267 689.467 497.734 694 498.667 697.333C499.467 700.667 500.934 704.533 502 706C502.934 707.467 504.133 711.333 504.667 714.4C505.2 717.467 506.534 720.933 507.6 722.133C508.667 723.2 510.4 726.933 511.467 730.267C512.534 733.733 514.267 737.467 515.2 738.533C516.267 739.733 517.734 743.2 518.4 746.267C519.067 749.333 520.934 753.467 522.534 755.467C524 757.467 525.333 759.867 525.333 760.8C525.333 762.8 538.267 774.267 543.867 777.333C545.867 778.4 553.867 782.533 561.467 786.4C569.067 790.133 576.267 793.867 577.334 794.533C578.4 795.2 583.6 797.733 588.667 800C593.867 802.267 598.934 804.8 600 805.467C601.067 806.133 604.134 807.6 606.667 808.8C609.2 809.867 617.6 813.867 625.334 817.6C633.067 821.2 642.667 825.733 646.667 827.6C662.667 834.933 671.467 839.333 674.534 841.6C676.267 842.933 679.334 844 681.2 844C683.2 844 686.8 845.467 689.2 847.2C691.734 849.067 695.334 850.933 697.467 851.333C699.6 851.867 701.334 852.667 701.334 853.333C701.334 854 703.6 855.2 706.4 856C710.934 857.467 722.4 862.533 728.667 865.733C730.134 866.533 735.734 869.467 741.067 872.267C746.4 875.067 751.334 877.333 752.267 877.333C754.4 877.333 773.067 886.4 774 887.867C774.4 888.667 777.867 890.133 781.867 891.2C785.734 892.4 789.734 894.133 790.534 895.2C791.467 896.267 793.734 897.467 795.6 898C797.467 898.4 804.4 901.467 810.934 904.8C817.467 908 823.6 910.667 824.4 910.667C825.334 910.667 827.467 911.467 829.334 912.4C831.2 913.467 836.8 916.4 841.734 919.067C846.8 921.867 851.6 924 852.534 924C853.467 924 856.4 925.467 859.067 927.2C861.6 928.933 865.467 930.8 867.734 931.2C869.867 931.733 873.6 933.6 876.134 935.467C878.534 937.2 881.2 938.667 882.134 938.667C882.934 938.667 885.2 939.867 887.067 941.333C888.934 942.8 892.4 944.4 894.667 944.933C897.067 945.333 903.333 948.267 908.534 951.2C924.4 960.4 925.734 961.2 931.6 963.867C939.6 967.6 943.467 971.467 946.933 979.2L950 986V1071.33V1156.67L945.734 1165.33C940.4 1176 915.6 1202 893.467 1220C885.6 1226.4 884.4 1226.93 879.467 1226.4C876.267 1226 871.467 1224 868 1221.47C864.667 1219.2 860.534 1216.27 858.667 1215.07C851.867 1210.67 843.334 1204.8 842.667 1204C841.067 1202.27 827.867 1193.33 826.8 1193.33C826.134 1193.33 823.867 1191.87 821.734 1190.13C819.734 1188.4 816 1185.87 813.467 1184.53C807.734 1181.33 805.467 1180 800.667 1176.67C798.4 1175.2 789.467 1170.4 780.667 1166.13C771.867 1161.87 762.534 1157.33 760 1156C757.334 1154.67 752.534 1152.93 749.334 1152C746 1151.2 742.4 1149.6 741.2 1148.53C740.134 1147.47 736 1146.13 732 1145.33C728.134 1144.53 724.267 1143.47 723.467 1142.8C721.467 1141.2 703.467 1134.8 694.534 1132.53C690.4 1131.6 684.8 1129.73 682.134 1128.67C679.334 1127.47 673.734 1125.87 669.6 1125.2C665.467 1124.4 660.534 1122.93 658.667 1122C656.8 1121.07 651.734 1119.6 647.333 1118.67C642.934 1117.73 637.734 1116.13 635.734 1115.2C633.734 1114.13 627.467 1112.67 621.734 1111.87C616.134 1111.07 609.734 1109.6 607.734 1108.53C605.6 1107.47 600.534 1106 596.267 1105.2C592.134 1104.53 586.267 1102.93 583.334 1101.87C580.4 1100.67 574.133 1099.2 569.334 1098.53C564.534 1097.87 557.734 1096.13 554 1094.8C550.4 1093.47 543.467 1091.87 538.8 1091.33C534.133 1090.8 527.867 1089.33 524.8 1088C521.867 1086.67 516.267 1085.2 512.4 1084.8C508.534 1084.27 502.934 1083.07 499.867 1082C492.267 1079.2 463.6 1076.8 454.267 1077.87C445.333 1079.07 439.333 1083.2 421.333 1100.93C415.067 1107.07 407.733 1114.27 404.8 1117.07C402 1119.73 398.267 1124.13 396.533 1126.67C383.067 1145.87 384 1143.87 384 1154.8C384 1162.67 384.533 1165.73 386.533 1168.13C387.867 1169.87 389.6 1173.6 390.533 1176.27C391.467 1178.93 392.933 1181.73 394 1182.67C394.933 1183.47 396.133 1185.73 396.667 1187.6C397.067 1189.6 398.533 1192.67 399.867 1194.53C401.2 1196.4 402.933 1200 403.733 1202.4C404.533 1204.8 406.4 1208.4 408 1210.27C409.467 1212.13 410.667 1214.4 410.667 1215.33C410.667 1216.27 411.733 1218.4 413.2 1220.13C414.533 1221.87 416.267 1225.6 417.2 1228.27C418.133 1230.93 419.6 1233.87 420.667 1234.67C421.733 1235.6 423.467 1237.87 424.4 1239.87C428.933 1248.27 439.867 1265.2 445.067 1271.73C448.133 1275.73 450.667 1279.33 450.667 1280C450.667 1281.6 474.934 1309.87 479.334 1313.47C480.133 1314 484 1317.47 488.133 1321.07C492.267 1324.67 497.467 1328.67 499.867 1330.13C502.133 1331.47 504 1332.93 504 1333.47C504 1334 505.867 1335.07 508 1336C510.267 1336.93 512 1338.27 512 1338.93C512 1339.6 514.267 1341.07 517.067 1342.27C519.734 1343.33 523.467 1345.33 525.333 1346.67C527.2 1348 530.8 1349.47 533.334 1350C535.867 1350.53 538.934 1351.87 540.133 1352.93C542.267 1354.8 550.133 1356.4 574.667 1360C588 1362 676.667 1361.07 694 1358.8C699.867 1358 711.6 1356.8 720.134 1356C728.667 1355.33 738 1353.87 741.067 1352.8C744.134 1351.73 751.867 1350.4 758.267 1350C764.667 1349.47 775.067 1347.87 781.334 1346.27C787.6 1344.8 796.267 1343.47 800.667 1343.47C807.6 1343.33 809.467 1343.87 814.134 1347.33C817.467 1349.73 820.934 1353.87 822.534 1357.33C824.134 1360.67 827.067 1366.27 829.334 1370C831.467 1373.6 834.534 1379.07 836 1382C837.467 1384.93 839.6 1388.8 840.534 1390.67C841.6 1392.53 843.067 1395.47 843.867 1397.33C844.667 1399.2 846 1401.87 846.934 1403.33C847.867 1404.8 850.267 1408.67 852.267 1411.87C854.4 1415.2 856 1418.8 856 1420C856 1421.33 856.8 1422.93 857.734 1423.73C858.667 1424.53 862.267 1430.8 865.867 1437.6C869.334 1444.4 873.067 1451.47 874 1453.33C874.934 1455.2 876.4 1458.13 877.334 1460C878.134 1461.87 880.267 1465.73 882 1468.67C883.867 1471.6 886.934 1476.93 888.8 1480.67C890.667 1484.27 893.734 1490.13 895.734 1493.6C904.667 1508.93 909.333 1517.47 909.333 1518.13C909.333 1519.33 917.867 1531.33 919.067 1531.73C919.6 1532 921.2 1534.53 922.534 1537.2C926.267 1544.4 936.133 1552.93 942 1554.13C947.867 1555.2 960.133 1552.93 972.667 1548.4C977.867 1546.53 985.867 1543.6 990.667 1541.87C1013.47 1533.6 1033.87 1530.8 1069.33 1530.8C1102.67 1530.8 1129.2 1534.27 1150.67 1541.47C1154.67 1542.8 1160.67 1544.27 1164 1544.8C1167.33 1545.33 1172.8 1546.8 1176.4 1548.13C1179.87 1549.6 1187.73 1551.07 1193.87 1551.47L1205.07 1552.4L1209.47 1547.6C1216.27 1540.67 1221.33 1533.2 1221.33 1530.53C1221.33 1529.2 1222.8 1526.4 1224.67 1524.27C1226.53 1522 1228 1519.2 1228 1517.73C1228 1516.27 1229.47 1513.2 1231.2 1510.8C1233.07 1508.27 1234.93 1504.67 1235.33 1502.53C1235.87 1500.53 1237.07 1498.13 1238 1497.33C1239.07 1496.53 1240.53 1493.6 1241.47 1490.93C1242.27 1488.27 1243.73 1485.07 1244.67 1484C1245.47 1482.93 1248.53 1477.2 1251.33 1471.33C1254.13 1465.47 1257.47 1459.2 1258.67 1457.33C1259.87 1455.47 1261.33 1452.4 1261.87 1450.4C1262.27 1448.4 1264.13 1444.53 1266 1441.87C1267.87 1439.2 1269.33 1436.27 1269.33 1435.33C1269.33 1434.4 1270.27 1432.93 1271.2 1432C1272.27 1431.2 1274.13 1427.6 1275.33 1424C1276.53 1420.4 1278.27 1416.8 1279.33 1416C1280.4 1415.2 1281.6 1412.67 1282 1410.4C1282.53 1408.27 1284.4 1404.27 1286.13 1401.73C1287.87 1399.07 1289.33 1396.27 1289.33 1395.33C1289.33 1394.4 1290.4 1392.27 1291.87 1390.53C1293.2 1388.8 1294.8 1385.87 1295.33 1384.13C1295.87 1382.53 1297.6 1379.07 1299.2 1376.53C1306.27 1365.47 1307.87 1362.67 1308.67 1359.73C1309.2 1358 1311.07 1354.8 1312.8 1352.4C1314.53 1350.13 1316 1347.6 1316 1346.8C1316 1346.13 1318.67 1343.6 1321.87 1341.33C1328.4 1336.93 1334.93 1336.27 1344.67 1338.8C1347.6 1339.6 1355.73 1341.33 1362.67 1342.67C1369.6 1344 1378.93 1346 1383.33 1347.07C1408.13 1353.6 1568 1353.73 1585.73 1347.2C1588.4 1346.13 1593.2 1344.4 1596.4 1343.2C1604.53 1340.27 1616.53 1334.27 1617.07 1333.07C1617.33 1332.4 1619.73 1330.8 1622.4 1329.47C1635.47 1322.67 1666.8 1286.13 1686 1255.6C1687.47 1253.2 1689.6 1250.13 1690.93 1248.8C1692.27 1247.33 1693.33 1245.47 1693.33 1244.67C1693.33 1243.87 1694.8 1241.2 1696.67 1238.67C1698.53 1236.13 1700 1233.2 1700 1232.13C1700 1231.07 1701.47 1227.87 1703.33 1225.07C1711.33 1212.93 1713.07 1209.73 1713.87 1206.13C1714.4 1204 1716 1200.67 1717.47 1198.93C1718.8 1197.07 1720 1194.8 1720 1193.73C1720 1192.67 1721.47 1188.93 1723.2 1185.47C1731.07 1170.53 1734 1160 1734 1147.33C1734 1135.47 1734 1135.2 1728.93 1128.67C1724 1122.27 1706.93 1105.47 1705.2 1105.33C1704.8 1105.33 1701.73 1102.8 1698.53 1099.6C1695.2 1096.53 1689.2 1091.33 1684.93 1088.13C1680.8 1084.93 1677.33 1082 1677.33 1081.47C1677.2 1081.07 1674.13 1078.53 1670.53 1076C1666.8 1073.47 1661.73 1069.73 1659.2 1067.73C1656.53 1065.73 1651.87 1063.73 1648.53 1063.2C1642 1062.27 1622.8 1064.67 1616.67 1067.2C1614.53 1068.13 1609.33 1069.73 1605.33 1070.67C1601.33 1071.6 1595.07 1073.47 1591.33 1074.8C1587.73 1076.13 1581.07 1077.6 1576.67 1078.13C1572.27 1078.53 1566.8 1080 1564.53 1081.33C1562.27 1082.53 1556.4 1084.4 1551.47 1085.2C1546.4 1086.13 1541.07 1087.6 1539.47 1088.67C1538 1089.73 1533.07 1091.07 1528.67 1091.87C1524.27 1092.53 1518 1094.4 1514.67 1095.87C1511.33 1097.33 1506.93 1098.67 1504.93 1098.67C1502.93 1098.67 1499.07 1099.6 1496.27 1100.8C1493.6 1102 1487.87 1103.73 1483.6 1104.8C1479.33 1105.87 1474.27 1107.47 1472.27 1108.53C1470.13 1109.6 1464.67 1111.2 1460 1112C1455.33 1112.8 1449.2 1114.67 1446.4 1116.13C1443.73 1117.47 1440.4 1118.67 1439.07 1118.67C1437.6 1118.67 1434.13 1119.87 1431.33 1121.33C1428.4 1122.8 1423.6 1124.4 1420.67 1124.93C1417.73 1125.33 1412.67 1127.07 1409.33 1128.8C1406 1130.53 1401.87 1132 1400.13 1132C1398.27 1132 1394.4 1133.2 1391.47 1134.53C1388.4 1136 1383.6 1138 1380.67 1139.2C1352.8 1149.47 1339.47 1155.47 1322.53 1165.2C1315.47 1169.2 1300.8 1178.67 1296.13 1182.27C1294.4 1183.6 1291.73 1185.6 1290 1186.67C1288.4 1187.73 1285.33 1189.87 1283.2 1191.33C1279.47 1193.73 1266.27 1204.53 1260.67 1209.6C1251.6 1217.73 1239.33 1226.67 1236 1227.33C1233.87 1227.73 1231.07 1227.6 1229.73 1226.8C1227.33 1225.6 1199.07 1196.13 1191.2 1186.8C1189.07 1184.27 1186.27 1181.2 1185.07 1179.87C1180 1174.53 1173.73 1164 1172.13 1158.27C1169.47 1148.93 1170.67 982.267 1173.33 976.8C1175.33 973.067 1188.4 963.867 1199.6 958.533C1202.67 957.067 1205.6 955.467 1205.87 954.8C1206.67 953.6 1215.73 949.067 1226.8 944.267C1230.27 942.8 1233.47 940.933 1233.87 940.133C1234.4 939.333 1235.87 938.667 1237.2 938.667C1238.53 938.667 1241.2 937.467 1243.2 935.867C1245.07 934.4 1248.93 932.533 1251.73 931.733C1254.4 931.067 1257.87 929.333 1259.33 928C1260.8 926.8 1264 925.067 1266.4 924.267C1268.8 923.467 1272.53 921.6 1274.53 920C1276.67 918.533 1279.07 917.333 1280 917.333C1280.8 917.333 1283.73 916.133 1286.4 914.667C1289.07 913.333 1293.2 911.333 1295.33 910.267C1297.6 909.333 1300.53 907.867 1302 907.067C1306.4 904.533 1321.87 897.6 1325.07 896.667C1326.67 896.267 1328 895.333 1328 894.667C1328 894 1331.07 892.533 1334.67 891.467C1338.4 890.4 1342.93 888.267 1344.93 886.667C1346.8 885.2 1349.2 884 1350.27 884C1351.33 884 1354.4 882.533 1357.07 880.667C1359.73 878.8 1362.67 877.333 1363.33 877.333C1364.13 877.333 1374.13 872.667 1385.47 866.933C1396.8 861.333 1407.6 856 1409.33 855.067C1411.2 854.267 1415.2 852.267 1418.13 850.8C1421.2 849.467 1424.13 847.6 1424.53 846.933C1424.93 846.133 1427.2 845.067 1429.6 844.667C1431.87 844.133 1439.87 840.667 1447.33 836.8C1454.8 833.067 1464.13 828.533 1468.13 826.8C1472.13 825.067 1476.8 822.933 1478.67 821.867C1480.53 820.8 1484.53 818.8 1487.6 817.333C1490.67 815.867 1493.6 814 1494 813.333C1494.4 812.667 1498 811.067 1502 809.867C1506 808.8 1509.6 807.2 1510.13 806.533C1510.53 805.733 1513.47 804 1516.53 802.533C1519.47 801.2 1522.93 799.467 1524 798.8C1525.07 798.133 1530.27 795.467 1535.33 792.933C1545.73 788 1551.47 784.8 1558 780.533C1560.4 778.933 1563.87 777.2 1565.47 776.667C1571.73 774.667 1589.2 758.933 1592.53 752.267C1593.73 750 1595.33 748 1596 748C1596.67 748 1597.87 745.467 1598.8 742.267C1599.6 739.2 1601.33 734.8 1602.8 732.533C1604.13 730.267 1605.33 727.467 1605.33 726.4C1605.33 725.467 1606.53 722.133 1608.13 719.333C1609.6 716.4 1611.47 710.667 1612.13 706.667C1612.93 702.667 1614.4 697.733 1615.47 695.733C1616.53 693.733 1618.27 687.733 1619.2 682.4C1620.27 677.067 1622 670.533 1623.07 668C1624.13 665.467 1625.47 659.733 1625.87 655.333C1626.4 650.933 1628 643.733 1629.33 639.333C1630.67 634.933 1632.53 624.8 1633.2 616.933C1634 609.067 1635.2 601.467 1636 600C1636.8 598.667 1638.27 588.267 1639.33 577.067C1640.4 565.867 1642 553.333 1642.67 549.333C1646.53 529.333 1648.93 440.933 1646.8 400C1644.93 364.267 1643.6 360 1629.73 346.4C1623.73 340.267 1619.2 337.067 1616.4 336.533C1614 336.133 1611.33 334.8 1610.53 333.733C1609.6 332.667 1607.07 330.933 1604.8 329.733C1602.53 328.533 1600.27 326.933 1599.6 325.867C1599.07 324.933 1596.93 323.867 1594.93 323.333C1592.93 322.933 1588 320.267 1584 317.333C1580 314.4 1575.2 311.333 1573.33 310.533C1571.47 309.733 1568.53 308.267 1566.67 307.2C1564.8 306.267 1561.2 304.4 1558.67 303.333C1556.13 302.267 1551.2 299.733 1547.6 297.867C1532.67 289.867 1501.87 274.667 1500.53 274.667C1499.73 274.667 1498 273.467 1496.67 272C1495.33 270.533 1493.2 269.333 1491.87 269.333C1489.07 269.333 1485.6 267.733 1476.67 262.533C1473.07 260.4 1467.87 257.733 1465.33 256.667C1462.8 255.467 1454.4 251.467 1446.67 247.867C1424.27 237.067 1422.27 236.267 1416.4 234.667C1413.2 233.867 1410.67 232.8 1410.67 232.133C1410.67 231.2 1396.67 224.667 1386 220.8C1369.07 214.667 1363.07 212.267 1360.67 211.067C1357.07 209.067 1342.67 204.4 1331.33 201.467C1326.27 200.267 1320.8 198.533 1319.33 197.733C1317.87 197.067 1312.8 195.6 1308 194.667C1303.2 193.867 1297.87 192.267 1295.87 191.333C1294 190.267 1289.2 189.067 1285.2 188.533C1281.2 188 1273.6 186.267 1268.27 184.533C1262.93 182.8 1255.6 181.333 1251.87 181.333C1248.27 181.333 1243.2 180.533 1240.8 179.467C1236.67 177.733 1227.2 176 1211.33 174C1207.73 173.467 1201.33 172.267 1197.33 171.2C1193.33 170.133 1180.67 168.667 1169.33 168C1158 167.2 1141.2 166.133 1132 165.333C1122.8 164.667 1110.67 164 1105.07 164C1095.6 164 1094.67 164.267 1092.13 167.467C1090.4 169.733 1089.33 173.067 1089.33 176.533C1089.2 179.467 1088.67 184.667 1088 188C1087.33 191.333 1086.13 203.333 1085.33 214.667C1084.53 226 1082.93 239.867 1081.87 245.333C1080.8 250.8 1079.33 261.6 1078.53 269.067C1077.73 278 1076.27 284.8 1074.67 288.133C1073.2 290.933 1072 294.4 1072 295.733C1072 300.8 1058 314.667 1052.93 314.667C1046.53 314.667 1033.87 301.467 1032.67 293.467C1032.13 290.8 1030.93 286.267 1029.87 283.333C1028.8 280.4 1027.33 271.067 1026.53 262.667C1025.87 254.267 1024 237.733 1022.53 226C1020.93 214.267 1019.33 196.667 1018.67 186.8C1017.73 169.6 1017.6 168.8 1014.13 165.733C1011.6 163.6 1008.8 162.667 1004.8 162.667C1001.73 162.667 998.8 162.933 998.4 163.333ZM1678.53 1130.67C1686 1132.13 1693.33 1133.33 1694.67 1133.33C1701.2 1133.33 1701.2 1141.6 1694.67 1150.27C1687.6 1159.6 1673.87 1175.47 1670.8 1177.87C1669.73 1178.67 1666 1182.13 1662.4 1185.6C1658.93 1189.2 1655.47 1192 1654.8 1192C1654.13 1192 1649.6 1195.33 1644.67 1199.33C1639.87 1203.33 1635.07 1206.67 1634 1206.67C1633.07 1206.67 1631.47 1207.6 1630.53 1208.8C1629.47 1210 1626.27 1212.13 1623.33 1213.47C1620.4 1214.93 1615.6 1217.87 1612.67 1220.13C1609.73 1222.27 1604.93 1225.33 1602 1226.67C1599.07 1228.13 1595.73 1229.87 1594.67 1230.67C1593.6 1231.33 1590.53 1232.8 1588 1234C1585.47 1235.07 1581.87 1236.93 1580 1238C1572.4 1242.27 1562.53 1246.67 1560.53 1246.67C1559.33 1246.67 1555.6 1248.13 1552.13 1249.87C1545.87 1253.07 1539.07 1255.6 1524.67 1260C1520.27 1261.47 1514 1263.47 1510.67 1264.53C1497.73 1268.8 1481.73 1273.33 1477.33 1274.13C1474.8 1274.67 1471.2 1275.87 1469.47 1276.93C1467.73 1278 1462.13 1279.47 1456.8 1280.27C1451.6 1280.93 1444.93 1282.67 1441.87 1284.13C1438.8 1285.47 1433.73 1286.93 1430.53 1287.47C1427.33 1287.87 1422 1289.33 1418.67 1290.67C1415.33 1292 1409.07 1293.47 1404.67 1294C1400.4 1294.53 1393.87 1296 1390.4 1297.47C1386.93 1298.8 1379.47 1300.53 1373.73 1301.2C1367.87 1301.87 1361.47 1303.2 1359.33 1304C1353.33 1306.4 1332.27 1308.93 1324.27 1308.27C1317.47 1307.73 1316.93 1307.47 1315.07 1302.8C1313.2 1298.67 1313.2 1295.6 1314.53 1280C1315.6 1268 1316.93 1260.13 1318.67 1256.27C1320.13 1252.93 1321.33 1249.6 1321.33 1248.8C1321.33 1245.2 1324.27 1237.47 1326.67 1234.67C1328.13 1232.93 1329.33 1229.87 1329.33 1227.87C1329.33 1221.2 1346.4 1201.07 1357.73 1194.13C1360.27 1192.67 1365.6 1189.2 1369.6 1186.53C1376.8 1181.6 1381.2 1179.07 1389.33 1175.2C1391.87 1174 1395.33 1171.87 1397.2 1170.53C1398.93 1169.2 1401.6 1168 1403.2 1168C1404.8 1168 1408.53 1166.8 1411.33 1165.2C1416.53 1162.53 1423.07 1160 1438.4 1154.67C1442.53 1153.2 1447.47 1151.2 1449.47 1150.13C1451.33 1149.07 1456.13 1147.73 1460.13 1147.2C1464 1146.8 1469.87 1145.2 1472.93 1143.87C1476.13 1142.53 1481.47 1141.07 1484.93 1140.67C1488.53 1140.27 1493.73 1139.07 1496.67 1138C1504.27 1135.47 1515.33 1133.33 1521.2 1133.33C1524.13 1133.33 1530.8 1132.4 1536.13 1131.33C1549.6 1128.53 1581.47 1127.2 1626.67 1127.73C1657.73 1128 1667.2 1128.53 1678.53 1130.67ZM533.334 1135.2C576.667 1135.87 618.4 1139.6 628.134 1143.73C631.334 1145.2 637.734 1146.67 642.4 1147.07C646.934 1147.6 653.067 1149.2 655.867 1150.67C658.8 1152.13 663.734 1153.73 666.934 1154.13C670 1154.67 673.867 1155.87 675.467 1156.93C676.934 1157.87 681.467 1159.6 685.467 1160.8C694.267 1163.33 708.934 1169.07 712.667 1171.33C714.134 1172.27 717.734 1173.73 720.667 1174.67C723.6 1175.6 726.934 1177.07 728 1178C729.067 1178.93 732 1180.27 734.534 1181.2C737.067 1182 740.267 1183.6 741.467 1184.8C742.8 1186 745.6 1187.87 747.867 1189.07C765.867 1198.93 782.8 1212.93 788.134 1222.53C789.6 1225.2 791.6 1228.8 792.667 1230.67C796.134 1236.93 801.067 1250 802 1255.33C802.534 1258.27 804 1264 805.467 1268C807.2 1273.2 808 1279.87 808.267 1290.8C808.667 1308.4 807.867 1310.53 799.067 1313.47C792.8 1315.47 772.134 1313.87 764.134 1310.67C760.8 1309.33 754.134 1307.87 749.334 1307.33C744.534 1306.8 738 1305.33 734.667 1304C731.334 1302.67 725.334 1301.33 721.2 1300.8C717.2 1300.27 712.134 1299.07 710.134 1298C708.134 1296.93 702.4 1295.33 697.6 1294.53C689.334 1293.2 684.267 1291.87 666 1285.87C662.4 1284.67 654.8 1282.8 649.333 1281.73C643.867 1280.67 636.4 1278.67 632.667 1277.33C629.067 1276 620 1273.07 612.667 1270.67C605.334 1268.27 597.6 1265.73 595.334 1265.07C593.2 1264.27 588.667 1262.8 585.334 1261.73C582 1260.67 576.534 1258.4 573.2 1256.53C569.734 1254.8 566 1253.33 564.667 1253.33C563.467 1253.33 560 1251.87 556.934 1250.13C553.867 1248.4 549.334 1246.53 547.067 1246C544.667 1245.47 542.267 1244.53 541.867 1243.73C541.467 1243.07 538.534 1241.33 535.467 1239.87C532.534 1238.53 529.067 1236.8 528 1236C526.934 1235.33 523.867 1233.87 521.333 1232.8C518.8 1231.6 514.534 1229.33 512 1227.73C509.334 1226 505.2 1223.47 502.8 1222C500.4 1220.53 496.667 1218 494.667 1216.27C492.667 1214.67 490.267 1213.33 489.467 1213.33C488.667 1213.33 483.867 1210 478.934 1206C474 1201.87 468.8 1197.73 467.334 1196.67C446.534 1181.6 418.667 1149.47 420.933 1143.07C421.333 1142.13 423.733 1140 426.4 1138.4C430.933 1135.6 433.333 1135.33 454.667 1134.67C467.467 1134.27 481.867 1134.13 486.667 1134.27C491.467 1134.53 512.4 1134.93 533.334 1135.2Z" fill="black"/>
<path d="M1791.73 1426.13C1789.33 1428.8 1786.8 1431.87 1786.13 1433.07C1785.47 1434.4 1783.87 1436.13 1782.53 1437.07C1781.2 1437.87 1779.73 1440.67 1779.2 1443.07C1778.8 1445.33 1777.07 1448.93 1775.47 1450.8C1774 1452.8 1771.6 1456 1770.4 1458.13C1766.53 1464.53 1764.8 1467.07 1761.73 1471.07C1760 1473.2 1758.67 1475.73 1758.67 1476.67C1758.67 1477.6 1757.73 1479.47 1756.4 1480.67C1753.6 1483.6 1748.67 1490.27 1745.87 1495.33C1743.87 1498.93 1737.73 1507.07 1728.8 1518C1709.47 1541.6 1676.8 1574.93 1662.67 1585.33C1649.33 1595.33 1647.87 1596.4 1644.4 1599.6C1642.67 1601.33 1639.33 1603.6 1636.93 1604.8C1634.53 1606 1632.27 1607.6 1631.87 1608.27C1631.33 1609.07 1629.87 1610.27 1628.4 1611.07C1627.07 1612 1623.87 1613.87 1621.47 1615.33C1614.93 1619.2 1599.47 1632 1598.13 1634.53C1597.47 1635.73 1595.87 1637.87 1594.67 1639.33C1590.53 1644 1578.27 1666.93 1576.8 1672.53C1576.27 1674.67 1574.67 1678 1573.2 1679.73C1571.87 1681.6 1570.67 1683.73 1570.67 1684.53C1570.67 1685.47 1569.2 1688.13 1567.47 1690.4C1565.73 1692.8 1564 1697.07 1563.47 1699.87C1563.07 1702.67 1561.47 1706 1560 1707.33C1558.53 1708.67 1557.33 1711.07 1557.33 1712.67C1557.33 1714.13 1555.87 1717.47 1554 1720C1552.13 1722.53 1550.67 1725.47 1550.67 1726.53C1550.67 1727.73 1549.2 1731.07 1547.33 1734C1545.6 1736.93 1544 1740.13 1544 1741.2C1544 1742.13 1541.07 1748.13 1537.47 1754.53C1534 1760.8 1530.53 1767.47 1530 1769.33C1529.47 1771.2 1526.13 1778.67 1522.53 1786C1518.93 1793.47 1516 1800.13 1516 1800.8C1516 1801.6 1514.93 1803.73 1513.47 1805.47C1512.13 1807.33 1510.27 1811.07 1509.6 1813.87C1508.8 1816.67 1507.33 1820 1506.27 1821.2C1505.2 1822.4 1503.6 1825.6 1502.8 1828.27C1501.87 1830.93 1500.4 1833.87 1499.33 1834.67C1498.4 1835.47 1497.2 1838.13 1496.67 1840.4C1496 1844.13 1489.73 1857.87 1479.33 1878.67C1477.73 1882 1475.87 1886.13 1475.33 1888C1474.8 1889.87 1473.6 1892.27 1472.67 1893.33C1471.73 1894.4 1470.27 1897.73 1469.33 1900.67C1468.4 1903.6 1466.93 1906.93 1466 1908C1464 1910.27 1459.87 1924.67 1458.93 1932.4C1458.67 1935.2 1459.07 1940.27 1460 1943.73C1462.53 1953.2 1470.67 1973.73 1472.8 1976.13C1473.73 1977.2 1475.07 1980.27 1475.47 1982.8C1476 1985.33 1477.73 1989.87 1479.47 1992.93C1481.2 1996 1482.67 1999.87 1482.67 2001.6C1482.67 2003.33 1484.27 2007.6 1486 2011.33C1487.87 2014.93 1489.33 2018.93 1489.33 2020C1489.33 2021.07 1490.8 2024.93 1492.67 2028.67C1494.4 2032.27 1496 2037.07 1496 2039.33C1496 2041.47 1497.2 2045.87 1498.67 2048.93C1500 2052.13 1501.87 2058.4 1502.8 2062.93C1503.6 2067.6 1505.2 2072.8 1506.27 2074.4C1507.33 2076.13 1508.8 2081.47 1509.6 2086.27C1510.27 2091.07 1512.4 2099.2 1514.13 2104.4C1515.87 2109.6 1517.33 2115.33 1517.33 2117.33C1517.33 2119.2 1519.2 2123.33 1521.6 2126.53C1525.47 2131.87 1526.13 2132.27 1530.4 2131.47C1535.33 2130.67 1540.67 2125.73 1545.33 2117.33C1546.8 2114.8 1549.73 2110.27 1552 2107.33C1554.13 2104.4 1557.2 2099.6 1558.67 2096.67C1560.13 2093.73 1563.2 2088.67 1565.33 2085.33C1567.47 2082 1570.4 2077.2 1571.87 2074.53C1573.33 2072 1575.33 2069.07 1576.53 2068.13C1577.6 2067.2 1578.93 2064.8 1579.33 2062.67C1579.73 2060.67 1581.33 2057.87 1582.8 2056.53C1584.13 2055.33 1585.33 2053.87 1585.33 2053.33C1585.33 2052.13 1593.87 2037.87 1596.4 2034.8C1597.33 2033.6 1598.93 2031.2 1599.87 2029.33C1600.67 2027.47 1602.8 2023.87 1604.4 2021.2C1606 2018.53 1609.07 2013.47 1611.2 2009.87C1613.33 2006.27 1615.87 2002.4 1616.8 2001.33C1617.6 2000.27 1618.8 1997.87 1619.33 1996C1619.87 1994.13 1621.47 1991.2 1622.93 1989.33C1627.47 1983.47 1631.73 1976.4 1632.67 1973.2C1633.2 1971.47 1634.8 1968.53 1636.27 1966.67C1640.93 1960.53 1646.67 1951.33 1646.67 1949.87C1646.67 1949.07 1647.6 1947.6 1648.8 1946.53C1650 1945.6 1651.87 1942.93 1653.07 1940.53C1657.2 1932.8 1662.67 1923.47 1668 1914.8C1670.93 1910.27 1673.33 1906.13 1673.33 1905.73C1673.33 1905.33 1674.8 1903.33 1676.67 1901.07C1678.53 1898.93 1680 1895.73 1680 1894C1680 1892.27 1681.2 1890 1682.67 1888.93C1684 1888 1685.87 1885.73 1686.67 1883.87C1687.33 1882.13 1689.87 1877.6 1692 1874C1694.27 1870.27 1697.33 1864.67 1698.8 1861.33C1700.4 1858 1702.67 1854.13 1704 1852.67C1706.53 1849.73 1707.07 1848.8 1715.87 1831.07C1719.07 1824.67 1724.27 1814.8 1727.33 1809.33C1730.4 1803.87 1733.33 1797.6 1733.87 1795.47C1734.4 1793.33 1736 1790.13 1737.33 1788.4C1738.67 1786.67 1740.13 1783.47 1740.67 1781.47C1741.07 1779.33 1742.67 1776.53 1744.13 1775.2C1745.47 1774 1746.67 1771.87 1746.67 1770.67C1746.67 1769.47 1748.13 1765.6 1750 1762.13C1751.87 1758.67 1753.33 1755.07 1753.33 1754.13C1753.33 1753.2 1754.8 1749.73 1756.53 1746.4C1758.27 1743.07 1760.13 1738.4 1760.67 1735.87C1761.2 1733.33 1762.8 1729.2 1764 1726.67C1765.33 1724 1766.93 1719.47 1767.33 1716.67C1767.87 1713.73 1769.33 1709.47 1770.67 1707.33C1772 1705.07 1773.73 1700.13 1774.53 1696.27C1775.33 1692.4 1776.8 1687.87 1777.87 1686.27C1778.93 1684.67 1780.13 1679.73 1780.67 1675.33C1781.2 1670.93 1782.67 1664.8 1784.13 1661.6C1785.47 1658.53 1787.2 1651.07 1788 1645.07C1788.8 1639.07 1790 1633.2 1790.53 1632C1792 1629.2 1793.07 1623.47 1795.47 1605.33C1796.53 1596.93 1798 1587.87 1798.67 1585.2C1800 1580.53 1802.8 1543.33 1805.33 1499.33C1806 1487.6 1806.53 1466.53 1806.67 1452.4C1806.67 1427.73 1806.53 1426.67 1803.73 1424C1799.6 1420.13 1796.67 1420.67 1791.73 1426.13Z" fill="black"/>
<path d="M339.2 1469.87C338.8 1472.4 339.067 1478.53 339.867 1483.6C340.667 1488.53 341.867 1505.87 342.667 1522C344 1548.93 346.267 1575.6 347.334 1577.47C347.6 1577.87 348.534 1586.27 349.334 1596.13C350.134 1606 352 1618.53 353.334 1624C354.667 1629.47 356.4 1638.13 357.2 1643.33C358.667 1652.4 361.467 1662.8 366.667 1679.33C368.134 1683.73 369.734 1690 370.134 1693.33C370.667 1696.67 372.134 1701.47 373.334 1704C374.667 1706.53 376.4 1711.33 377.334 1714.53C378.134 1717.73 380 1722.53 381.467 1725.2C382.8 1727.87 384 1731.2 384 1732.67C384 1734.13 385.2 1737.07 386.667 1739.33C388.134 1741.47 389.334 1744.27 389.334 1745.47C389.334 1746.53 390.8 1750.4 392.534 1754.13C401.067 1772 404 1778.67 404 1780.27C404 1781.33 404.934 1783.33 406 1785.07C409.2 1789.6 424 1818.93 424 1820.8C424 1821.6 424.934 1823.2 426.134 1824.13C427.334 1825.2 429.467 1828.53 430.8 1831.6C432.134 1834.8 433.867 1837.33 434.534 1837.33C435.2 1837.33 436.134 1839.2 436.667 1841.33C437.2 1843.6 440.8 1850.27 444.8 1856.27C448.8 1862.27 452 1867.87 452 1868.67C452 1869.6 453.2 1871.33 454.667 1872.67C456.134 1874 457.6 1876.13 458.134 1877.6C458.534 1879.07 461.334 1883.87 464.4 1888.4C467.467 1892.93 471.067 1898.8 472.267 1901.33C473.6 1903.87 476.4 1908.67 478.667 1912C480.8 1915.33 483.2 1919.47 484 1921.33C484.8 1923.2 486.534 1925.87 487.867 1927.33C490.267 1930 500.534 1946.53 503.867 1953.07C504.934 1955.07 507.2 1958.4 508.934 1960.4C510.534 1962.53 512 1964.93 512 1965.87C512 1966.8 513.2 1968.67 514.534 1969.87C516 1971.2 517.6 1974 518 1976C518.4 1978 520.267 1981.07 522.134 1982.67C523.867 1984.4 525.334 1986.53 525.334 1987.47C525.334 1988.27 526.267 1989.87 527.467 1990.8C528.667 1991.87 530.8 1995.07 532.134 1998C533.6 2000.93 536.4 2005.87 538.4 2008.93C545.867 2020.27 551.467 2028.8 553.067 2031.33C554 2032.8 555.867 2035.73 557.334 2038C568.534 2055.47 572 2060.93 578.667 2072C585.467 2083.47 589.734 2090 590.534 2090.67C591.467 2091.33 596 2098.4 600 2105.6C603.867 2112.4 616.534 2131.07 623.067 2139.6C625.067 2142.27 626.667 2144.8 626.667 2145.47C626.667 2147.73 632 2148 636 2146C638.134 2144.93 640 2143.47 640 2142.93C640.267 2136.4 643.6 2121.47 648 2108C650.934 2098.8 654 2087.87 654.8 2083.6C655.467 2079.2 657.2 2073.2 658.667 2070.13C660 2067.2 661.734 2062.27 662.4 2059.33C666.534 2043.73 670.534 2030.8 672.4 2027.2C673.467 2025.07 674.8 2020.67 675.334 2017.33C675.867 2014 677.2 2010 678.267 2008.27C679.334 2006.53 680.667 2001.87 681.334 1997.73C682 1993.6 683.467 1989.33 684.534 1988.13C685.6 1986.93 687.467 1980 688.8 1972.67C690.667 1961.2 690.8 1958.13 689.334 1950.67C688.4 1945.87 686.534 1940.53 685.2 1938.8C683.734 1937.07 682.667 1934.93 682.667 1934.13C682.667 1933.2 681.2 1929.6 679.467 1925.87C677.734 1922.27 674.4 1915.07 672 1910C669.734 1904.8 665.734 1896.8 663.2 1892C660.8 1887.2 657.734 1881.2 656.534 1878.67C652 1869.2 645.067 1855.2 643.2 1852C642.267 1850.13 641.334 1847.73 641.334 1846.53C641.334 1845.47 639.867 1842.53 638 1840C636.134 1837.47 634.667 1834.53 634.667 1833.2C634.667 1832 633.467 1829.47 632 1827.6C630.534 1825.73 629.334 1823.73 629.334 1822.93C629.334 1822.27 627.6 1819.07 625.334 1815.87C623.2 1812.67 621.334 1808.67 621.334 1807.2C621.334 1805.6 620.134 1802.93 618.8 1801.07C617.334 1799.2 615.2 1795.33 614 1792.27C612.667 1789.2 611.2 1786.67 610.534 1786.67C609.867 1786.67 608.667 1783.87 607.867 1780.53C606.934 1777.2 605.467 1774.13 604.534 1773.73C603.6 1773.33 602.134 1770.93 601.2 1768.27C600.267 1765.47 598.534 1762 597.2 1760.27C595.867 1758.53 594.534 1755.47 594 1753.33C593.6 1751.2 592.267 1748.8 591.2 1748C590.267 1747.07 588.667 1743.87 587.867 1740.8C587.067 1737.87 585.6 1734.4 584.667 1733.33C583.734 1732.27 582 1729.07 580.8 1726.27C579.734 1723.47 577.867 1720.4 576.8 1719.2C575.6 1718.13 574.134 1715.2 573.467 1712.67C572.8 1710.13 571.334 1707.07 570.134 1705.87C568.934 1704.8 567.6 1702.27 567.2 1700.27C566.667 1698.27 565.2 1695.47 563.867 1694C562.667 1692.53 559.2 1686.8 556.4 1681.2C545.467 1659.73 531.067 1643.2 518.134 1637.2C515.2 1635.73 509.734 1632.93 506 1630.8C502.4 1628.67 497.867 1626.13 496.134 1625.33C494.4 1624.53 491.2 1622.4 489.067 1620.67C486.934 1618.8 484.267 1617.33 483.067 1617.33C482 1617.33 477.734 1614.67 473.6 1611.47C469.467 1608.4 464.267 1604.8 462 1603.6C453.867 1599.47 435.867 1581.73 410.934 1553.6C400.934 1542.4 400.8 1542.13 398.134 1538C396.667 1535.87 395.067 1533.47 394.4 1532.67C393.867 1532 391.2 1528.67 388.667 1525.33C386.134 1522 382.934 1518.13 381.6 1516.67C380.267 1515.2 377.734 1511.6 375.867 1508.67C374 1505.73 371.334 1501.6 369.867 1499.47C368.534 1497.33 366.667 1494.67 366 1493.47C365.2 1492.27 362.267 1487.87 359.334 1483.47C356.4 1479.2 353.334 1474.4 352.4 1472.8C350.134 1468.93 345.467 1465.33 342.534 1465.33C340.8 1465.33 339.867 1466.67 339.2 1469.87Z" fill="black"/>
<path d="M328 2128.13C324.534 2129.6 321.867 2129.73 263.6 2132.13C223.467 2133.73 222.267 2134 211.734 2144C208.4 2147.33 203.334 2151.73 200.667 2154C198 2156.13 192.8 2160.8 188.934 2164.13C185.067 2167.47 174.267 2176.67 164.667 2184.67C155.2 2192.53 146.267 2200.13 144.934 2201.47C143.6 2202.93 142.134 2204 141.467 2204C139.867 2204 121.067 2219.6 119.6 2222C119.067 2223.07 117.734 2224 116.667 2224C115.6 2224 110.934 2227.33 106.134 2231.33C101.467 2235.33 97.0669 2238.67 96.6669 2238.67C96.1335 2238.67 90.2669 2243.2 83.7335 2248.67C77.2002 2254.13 70.9335 2258.67 70.0002 2258.67C69.0669 2258.67 67.3335 2260.13 66.1335 2262C64.9335 2263.87 63.2002 2265.33 62.2669 2265.33C59.3335 2265.33 50.4002 2275.47 50.9335 2278.13C51.3335 2280.27 52.5335 2280.67 58.4002 2280.4C62.1335 2280.27 67.4669 2278.93 70.2669 2277.6C73.0669 2276.13 77.7335 2274.53 80.6669 2274.13C83.4669 2273.6 88.0002 2272 90.6669 2270.67C93.2002 2269.33 98.9335 2267.6 103.334 2266.67C107.734 2265.87 112.667 2264.27 114.267 2263.2C115.734 2262.27 120.534 2260.8 124.934 2260.13C129.2 2259.47 135.334 2257.6 138.667 2256.13C142 2254.67 146.267 2253.33 148.267 2253.33C150.267 2253.33 155.067 2252.13 158.934 2250.67C162.8 2249.33 170.267 2247.47 175.334 2246.53C180.534 2245.73 186.534 2244.27 188.934 2243.2C191.334 2242.27 198.534 2240.53 204.934 2239.33C211.334 2238.13 219.734 2236.4 223.334 2235.33C227.067 2234.4 233.067 2233.2 236.667 2232.67C240.4 2232.27 246.267 2230.93 249.867 2229.87C253.467 2228.8 259.334 2228 262.934 2228C268.934 2228 269.734 2228.4 276.267 2235.2C283.734 2242.67 286.534 2246.13 292 2254C293.867 2256.67 296.934 2260.93 299.067 2263.6C301.067 2266.27 302.667 2268.93 302.667 2269.6C302.667 2270.27 305.2 2274.13 308.4 2278.27C311.467 2282.27 316.134 2288.8 318.667 2292.53C328 2306.13 333.6 2313.33 334.8 2313.33C335.467 2313.33 336 2314.13 336 2315.2C336 2316.27 337.2 2318.53 338.534 2320.27C340 2321.87 343.2 2325.73 345.6 2328.53C349.6 2333.33 350 2334.53 349.867 2342.27C349.734 2348.67 349.067 2351.47 347.067 2353.73C342.934 2358.4 336 2370 336 2372.4C336 2373.47 334.667 2376.13 332.934 2378.27C330.134 2381.87 326.534 2387.07 319.6 2398.27C317.867 2401.07 315.467 2404.8 314.134 2406.67C312.934 2408.53 309.334 2414 306 2418.8C302.8 2423.6 299.2 2428.27 298.134 2429.2C296.934 2430.27 296 2431.47 296 2432.13C296 2432.8 293.467 2437.07 290.4 2441.47C287.2 2445.87 283.6 2451.2 282.4 2453.07C279.334 2457.73 276 2462.27 272.4 2466.8C270.667 2468.8 269.334 2470.93 269.334 2471.73C269.334 2472.4 268.4 2473.87 267.2 2474.8C266 2475.87 263.6 2478.8 261.867 2481.33C256.667 2488.93 253.2 2493.73 243.734 2506.27C238.8 2512.67 232.8 2520.67 230.4 2524C228 2527.33 225.734 2530.27 225.334 2530.67C224.934 2531.07 222.534 2534.27 220 2537.73C217.467 2541.33 212.134 2548.13 208.4 2552.93C204.534 2557.73 201.334 2562.13 201.334 2562.8C201.334 2563.47 199.734 2565.73 197.734 2567.87C195.6 2570.13 192.8 2573.47 191.334 2575.47C189.867 2577.33 187.067 2580.93 184.934 2583.33C181.334 2587.6 177.334 2595.73 177.334 2598.8C177.334 2599.73 179.2 2599.87 183.067 2599.33C189.2 2598.27 196 2595.2 196 2593.6C196 2592.93 198.134 2591.47 200.667 2590.27C203.2 2589.07 205.334 2587.47 205.334 2586.8C205.334 2586.13 207.467 2584.8 210.134 2584C212.667 2583.07 215.2 2581.6 215.467 2580.67C215.867 2579.73 218.534 2578 221.467 2576.67C224.267 2575.33 226.667 2573.87 226.667 2573.33C226.667 2572.8 228.4 2571.6 230.534 2570.67C232.667 2569.87 235.467 2568 236.667 2566.67C238 2565.2 240.667 2563.73 242.667 2563.33C244.667 2562.93 247.467 2561.33 248.8 2559.87C250.134 2558.4 254.534 2555.33 258.534 2553.07C262.667 2550.8 267.734 2547.47 269.734 2545.73C271.867 2544 274.4 2542.67 275.334 2542.67C276.267 2542.67 278 2541.87 278.934 2540.93C283.867 2536.4 291.734 2530.93 294.667 2530C296.534 2529.47 299.067 2528 300.4 2526.93C303.334 2524.27 311.2 2519.47 316.667 2516.93C318.934 2515.87 321.867 2513.73 323.2 2512.13C324.667 2510.67 326.8 2509.33 328 2509.33C329.334 2509.33 331.734 2508.27 333.467 2506.8C335.2 2505.47 341.334 2501.73 347.067 2498.53C352.8 2495.33 360.267 2491.07 363.734 2489.07C367.2 2487.07 372.4 2484.27 375.334 2482.8C378.267 2481.2 381.6 2479.47 382.667 2478.67C383.734 2478 389.334 2475.2 394.934 2472.67C400.534 2470 405.867 2466.93 406.8 2465.87C407.6 2464.93 410.8 2463.33 413.867 2462.53C416.8 2461.87 420.8 2460.13 422.667 2458.8C424.534 2457.47 428.267 2455.73 430.934 2454.8C433.6 2453.87 436.534 2452.27 437.334 2451.2C438.4 2450.13 441.334 2449.33 444.934 2449.33C453.734 2449.33 455.867 2451.2 549.2 2544.27C604 2598.93 602 2596.13 597.867 2610.67C596.667 2614.67 594.934 2620.93 593.867 2624.67C592.8 2628.27 592 2632.8 592 2634.67C592 2636.53 590.8 2640.53 589.334 2643.6C588 2646.8 586.4 2653.07 585.867 2657.6C585.467 2662.27 583.867 2668.67 582.534 2672C581.2 2675.33 579.467 2681.6 578.534 2686C577.734 2690.27 576.267 2695.07 575.334 2696.67C574.4 2698.13 573.2 2702.67 572.667 2706.67C572.134 2710.67 570.267 2717.47 568.534 2721.6C566.8 2725.87 565.334 2730.13 565.334 2731.33C565.334 2732.53 564.267 2735.6 562.8 2738.4C561.467 2741.07 559.6 2747.2 558.8 2751.73C557.867 2756.4 556 2762.13 554.534 2764.4C553.2 2766.8 552 2770.13 552 2772C552 2773.87 550.4 2778.27 548.667 2782C546.8 2785.6 545.334 2789.6 545.334 2790.93C545.334 2792.13 543.867 2796.27 542 2800.27C540.134 2804.13 538.667 2808.93 538.667 2810.8C538.667 2812.67 537.2 2816.93 535.467 2820.27C533.734 2823.6 531.867 2828.27 531.334 2830.67C530.8 2833.07 529.2 2836.93 527.867 2839.2C526.534 2841.47 525.334 2844.13 525.334 2845.2C525.334 2846.27 524.134 2849.6 522.8 2852.53C520.267 2857.87 516.4 2868.13 512.534 2880C511.467 2883.33 509.467 2888.13 508.134 2890.67C506.8 2893.2 505.2 2897.47 504.667 2900C504.134 2902.53 502.534 2906.8 501.2 2909.33C499.734 2911.87 498.667 2914.93 498.667 2916.13C498.667 2917.2 497.2 2921.2 495.334 2924.67C493.6 2928.27 491.734 2932.93 491.2 2935.07C490.8 2937.2 489.334 2940.93 488 2943.2C486.667 2945.47 484.4 2951.47 483.067 2956.4C481.067 2964.27 480.934 2965.6 482.667 2966.67C485.867 2968.8 489.2 2968.13 491.734 2965.2C492.934 2963.6 494.934 2961.33 496 2960.13C497.2 2958.93 500.4 2954.93 503.334 2951.33C506.134 2947.6 511.067 2942 514.267 2938.67C517.467 2935.47 520 2932.27 520 2931.73C520 2931.2 521.467 2929.2 523.2 2927.33C529.6 2920.4 538.667 2909.87 546.667 2900C551.2 2894.53 557.067 2887.6 559.734 2884.67C562.4 2881.73 566.267 2877.2 568.134 2874.67C570.134 2872.13 575.334 2865.87 579.867 2860.8C584.267 2855.73 588 2851.07 588 2850.4C588 2849.73 590.8 2846.4 594.4 2842.93C603.734 2833.47 620.534 2814.8 622 2812C622.8 2810.67 626 2806.53 629.334 2802.93C632.667 2799.33 639.6 2791.73 644.667 2786C663.6 2764.93 718.4 2710.8 721.734 2710C725.067 2709.07 729.734 2712.53 744.667 2726.93C747.6 2729.73 750.4 2732 750.8 2732C751.334 2732 754.667 2734.8 758.267 2738.27C771.467 2750.8 787.067 2764.67 789.2 2765.87C790.4 2766.53 792.8 2768.67 794.8 2770.53C798.667 2774.53 806.134 2781.2 819.334 2792.53C824.534 2796.93 832 2803.47 836.134 2807.2C851.734 2821.6 863.067 2831.33 865.2 2832.53C866.4 2833.2 870.134 2836.53 873.6 2839.87C883.2 2849.07 906 2869.47 920 2881.33C941.334 2899.47 965.6 2923.33 971.6 2932.27C974.134 2936 976.4 2941.73 977.2 2946.13C978 2950.27 979.2 2954.4 979.867 2955.2C980.534 2956 982.134 2960.8 983.334 2966C984.667 2971.07 986.4 2976.93 987.467 2978.8C988.4 2980.67 989.6 2986 990 2990.8C990.534 2995.47 992 3002.93 993.334 3007.33C994.8 3011.73 996.534 3019.2 997.334 3024C998.134 3028.8 999.6 3035.33 1000.67 3038.67C1001.73 3042 1003.2 3049.73 1004 3055.87C1004.8 3062.13 1006.27 3069.6 1007.33 3072.53C1008.27 3075.6 1009.73 3083.33 1010.67 3090C1011.47 3096.53 1012.93 3105.6 1014 3110C1015.2 3114.4 1016.8 3124 1017.87 3131.33C1018.93 3138.67 1020.4 3146.27 1021.2 3148.27C1022 3150.27 1023.2 3158.4 1024 3166.27C1024.8 3174.13 1026.53 3185.47 1027.87 3191.33C1029.33 3197.2 1030.8 3205.87 1031.33 3210.67C1031.73 3215.47 1033.07 3222 1034 3225.33C1035.07 3228.67 1036.53 3237.07 1037.33 3244C1038.13 3250.93 1039.6 3260 1040.67 3264C1041.73 3268 1043.6 3278.27 1044.67 3286.67C1047.2 3305.73 1051.07 3323.6 1053.2 3325.73C1056.13 3328.67 1059.2 3324.67 1062.27 3314.13C1063.87 3308.53 1065.6 3299.6 1066 3294.27C1066.53 3288.93 1068 3280.4 1069.33 3275.33C1070.67 3270.13 1072.4 3260 1073.33 3252.67C1074.13 3245.47 1075.6 3236.4 1076.67 3232.67C1077.73 3229.07 1079.07 3220.53 1079.87 3214C1080.53 3207.33 1081.87 3200.13 1082.67 3198C1083.6 3195.73 1085.07 3187.33 1086.13 3179.33C1087.2 3171.2 1088.93 3161.6 1090 3158C1091.07 3154.27 1092.53 3145.47 1093.33 3138.13C1094.13 3130.93 1095.6 3121.6 1096.53 3117.47C1097.6 3113.33 1099.2 3105.07 1100 3099.07C1100.8 3092.93 1102.53 3083.73 1103.87 3078.4C1105.33 3073.07 1106.8 3064.93 1107.2 3060.27C1107.73 3055.73 1109.07 3049.47 1110.13 3046.27C1111.2 3043.2 1112.67 3036.13 1113.33 3030.53C1114 3025.07 1115.73 3016.93 1117.2 3012.53C1118.53 3008.27 1120.13 3001.73 1120.67 2998.27C1121.2 2994.67 1122.53 2989.2 1123.87 2986.27C1125.2 2983.2 1126.67 2976.93 1127.07 2972.27C1127.6 2967.73 1129.07 2961.73 1130.53 2958.93C1131.87 2956.27 1133.33 2951.6 1133.87 2948.67C1134.4 2945.73 1135.73 2942.13 1136.67 2940.53C1137.6 2939.07 1139.2 2935.07 1140 2931.87C1141.6 2926 1150.93 2914.67 1154.27 2914.67C1155.07 2914.67 1158.67 2911.87 1162.27 2908.53C1165.73 2905.2 1170.27 2901.6 1172.4 2900.53C1174.4 2899.47 1176 2898.13 1176 2897.6C1176 2897.07 1177.6 2895.6 1179.73 2894.4C1181.73 2893.2 1185.87 2889.87 1188.93 2886.93C1196.67 2879.73 1204.4 2873.2 1208.53 2870C1210.53 2868.53 1213.2 2866.4 1214.4 2865.33C1215.73 2864.27 1221.73 2858.93 1228 2853.47C1234.27 2848 1240.8 2842.13 1242.67 2840.27C1244.53 2838.53 1249.47 2834.27 1253.73 2830.93C1257.87 2827.6 1261.33 2824.4 1261.33 2823.87C1261.33 2823.2 1263.6 2821.2 1266.4 2819.47C1269.07 2817.73 1273.47 2814.27 1276.13 2811.87C1278.93 2809.33 1283.2 2805.47 1285.87 2803.33C1288.53 2801.07 1294 2796.27 1298 2792.67C1314.8 2777.2 1325.33 2767.87 1335.33 2759.2C1341.2 2754.27 1347.2 2748.93 1348.67 2747.47C1351.47 2744.67 1360 2737.33 1370 2729.07C1372.93 2726.67 1376.53 2723.6 1378 2722.27C1393.33 2708.67 1400.27 2706.93 1408.67 2714.67C1416.8 2722 1464.67 2770.53 1472.67 2779.33C1477.87 2785.07 1485.2 2792.8 1489.07 2796.67C1492.8 2800.53 1496 2804.13 1496 2804.8C1496 2805.33 1499.47 2809.47 1503.73 2814C1515.47 2826.67 1522.13 2834 1530 2843.33C1534 2848 1538.53 2853.2 1540 2854.93C1544.13 2859.6 1557.07 2874.93 1559.87 2878.67C1562.8 2882.4 1570.13 2891.07 1573.73 2895.2C1575.07 2896.8 1582.53 2905.73 1590.27 2915.33C1598 2924.8 1605.47 2933.87 1606.93 2935.33C1608.27 2936.8 1614.67 2944.27 1621.07 2952C1634.27 2968 1634.13 2968 1638.8 2968C1644.8 2968 1645.87 2965.07 1642.8 2958.13C1641.2 2954.8 1640 2951.6 1640 2951.07C1640 2950.4 1638.8 2947.73 1637.33 2945.07C1635.87 2942.4 1634 2937.33 1633.2 2933.73C1632.4 2930.27 1630.53 2925.47 1629.33 2923.33C1628 2921.07 1626.27 2917.2 1625.6 2914.67C1624.8 2912.13 1622.27 2905.2 1620 2899.33C1612.8 2881.2 1612.13 2879.33 1612 2877.33C1612 2876.27 1610.4 2872.27 1608.67 2868.67C1606.8 2864.93 1605.33 2861.33 1605.33 2860.4C1605.33 2859.6 1603.87 2855.73 1602 2851.73C1600.13 2847.87 1598.67 2843.47 1598.67 2842C1598.67 2840.53 1597.2 2836.53 1595.33 2833.07C1593.47 2829.6 1592 2825.73 1592 2824.4C1592 2823.07 1590.53 2818.93 1588.67 2815.33C1586.93 2811.6 1585.33 2807.6 1585.33 2806.27C1585.33 2804.93 1583.87 2800.93 1582 2797.33C1580.13 2793.73 1578.67 2789.33 1578.67 2787.73C1578.67 2786 1577.07 2781.6 1575.33 2778C1573.47 2774.27 1572 2770.53 1572 2769.6C1572 2768.67 1570.53 2764.4 1568.67 2760C1566.8 2755.6 1565.33 2750.67 1565.33 2748.93C1565.33 2747.33 1564.13 2743.47 1562.67 2740.67C1561.07 2737.73 1559.2 2732.67 1558.4 2729.33C1557.6 2726 1556.13 2721.87 1555.2 2720C1554.27 2718.13 1552.8 2712.67 1552 2708C1551.2 2703.2 1549.73 2698.13 1548.67 2696.53C1547.73 2695.07 1546.27 2689.2 1545.33 2683.47C1544.53 2677.73 1542.67 2670.53 1541.33 2667.47C1540 2664.4 1538.53 2658.53 1538 2654.67C1537.47 2650.67 1536.27 2645.73 1535.33 2643.87C1534.27 2642 1532.53 2634.53 1531.47 2627.2C1530.4 2620 1528.53 2611.6 1527.47 2608.67C1524.27 2600.13 1524.8 2592.27 1528.93 2586.13C1531.87 2581.6 1540.8 2570.93 1546.8 2564.67C1554.93 2556 1562.13 2548.8 1586.8 2524.13C1602.8 2508.27 1619.2 2491.87 1623.47 2487.6C1627.87 2483.33 1632.53 2478.53 1634.13 2476.93C1636.67 2474.13 1639.73 2471.2 1650.67 2461.07C1653.2 2458.67 1658.27 2453.47 1661.87 2449.6C1669.07 2442 1672.53 2440.93 1678.4 2445.2C1680.4 2446.53 1684.13 2448.67 1686.67 2449.87C1689.2 2451.07 1694.4 2453.73 1698 2455.73C1701.73 2457.87 1713.2 2464 1723.6 2469.47C1752.4 2484.4 1752.53 2484.53 1756.8 2487.33C1763.2 2491.73 1765.87 2493.33 1769.33 2494.8C1771.2 2495.6 1773.87 2496.8 1775.33 2497.47C1776.8 2498.13 1781.33 2501.07 1785.33 2504C1789.33 2506.93 1793.33 2509.33 1794.27 2509.33C1795.07 2509.33 1797.47 2510.8 1799.6 2512.53C1801.6 2514.27 1804.8 2516.13 1806.67 2516.67C1808.53 2517.2 1811.2 2518.67 1812.67 2519.87C1816 2522.67 1824.93 2528.53 1829.6 2530.8C1831.6 2531.87 1836.8 2535.2 1841.2 2538.27C1845.73 2541.47 1849.6 2544 1850 2544C1850.4 2544 1852.4 2545.07 1854.4 2546.53C1856.4 2547.87 1861.07 2550.8 1864.67 2553.07C1868.4 2555.33 1873.2 2558.53 1875.33 2560C1886.4 2567.6 1898.4 2575.2 1902 2576.93C1904.27 2578 1907.87 2580.13 1910 2581.73C1912.27 2583.33 1917.33 2587.07 1921.33 2590.13C1930.8 2597.07 1943.07 2604 1945.87 2604C1948.67 2604 1949.87 2600.93 1948.8 2596.8C1948.4 2595.07 1944.27 2588.93 1939.6 2583.2C1934.93 2577.33 1930.53 2571.73 1929.87 2570.4C1929.2 2569.2 1926.13 2565.6 1923.2 2562.4C1920.13 2559.2 1916.67 2554.53 1915.47 2552.27C1914.27 2549.87 1912.67 2548 1912 2548C1911.33 2548 1910 2546.67 1909.07 2544.93C1904.13 2536.27 1901.6 2532.67 1898 2528.8C1895.87 2526.4 1893.07 2523.07 1892 2521.47C1890.93 2519.73 1888.27 2516 1886 2513.2C1883.87 2510.4 1880.53 2506 1878.67 2503.2C1876.8 2500.53 1874 2496.93 1872.4 2495.07C1870.67 2493.33 1869.33 2491.47 1869.33 2490.93C1869.33 2489.6 1861.73 2479.2 1855.07 2471.07C1851.87 2467.33 1849.33 2463.6 1849.33 2462.8C1849.33 2462.13 1847.6 2459.47 1845.6 2457.07C1843.6 2454.67 1840.4 2450.27 1838.53 2447.33C1836.67 2444.4 1832.67 2438.53 1829.87 2434.27C1821.33 2421.33 1817.6 2415.6 1814.67 2410.67C1813.2 2408.13 1810.13 2403.6 1807.87 2400.67C1800.53 2390.67 1794.67 2381.73 1794.67 2380.27C1794.67 2379.47 1793.2 2377.2 1791.47 2375.07C1789.73 2373.07 1786.27 2367.33 1783.73 2362.53C1781.2 2357.73 1776.53 2350 1773.47 2345.2C1767.6 2336.13 1767.2 2332.27 1771.73 2327.87C1775.73 2324 1779.33 2319.47 1781.07 2316C1783.47 2311.2 1791.87 2299.33 1796.8 2294C1798.27 2292.4 1800.67 2289.2 1802.13 2286.93C1806.13 2280.8 1815.73 2266.13 1816.93 2264.67C1817.47 2263.87 1820.13 2260.4 1822.67 2256.93C1825.2 2253.33 1828.53 2248.93 1830.13 2246.93C1831.6 2244.93 1835.07 2239.73 1837.73 2235.2C1843.6 2225.73 1848.67 2223.07 1856.93 2225.2C1859.73 2225.87 1865.33 2226.93 1869.33 2227.33C1873.33 2227.87 1878.4 2229.2 1880.4 2230.27C1882.53 2231.33 1887.87 2232.8 1892.4 2233.47C1896.93 2234.13 1902.8 2235.6 1905.33 2236.53C1907.87 2237.6 1913.33 2238.8 1917.33 2239.33C1921.33 2239.87 1929.33 2241.73 1935.07 2243.47C1940.8 2245.2 1947.07 2246.67 1949.07 2246.67C1951.07 2246.67 1956.93 2248.27 1962 2250C1967.2 2251.87 1972.53 2253.33 1974 2253.33C1975.47 2253.33 1979.73 2254.93 1983.33 2256.67C1987.07 2258.53 1992.27 2260 1994.93 2260C1997.73 2260 2003.73 2261.47 2008.27 2263.2C2020.93 2267.87 2037.33 2272.93 2043.2 2274C2046.13 2274.53 2049.73 2275.73 2051.2 2276.8C2052.67 2277.73 2058.27 2279.6 2063.6 2280.8C2071.33 2282.53 2073.73 2282.67 2075.33 2281.33C2078.53 2278.67 2077.6 2275.6 2072.4 2271.07C2060.13 2260.8 2055.6 2257.33 2054.4 2257.33C2053.6 2257.33 2051.6 2256 2049.87 2254.27C2044.13 2248.8 2042 2247.07 2038 2244.8C2035.87 2243.6 2031.6 2240.8 2028.67 2238.53C2025.73 2236.4 2021.87 2233.6 2020 2232.27C2018.27 2231.07 2015.47 2228.8 2013.87 2227.33C2012.27 2225.87 2006.93 2221.6 2002.13 2218C1997.2 2214.27 1987.07 2206.4 1979.6 2200.4C1972.13 2194.27 1964.53 2188.27 1962.8 2187.07C1961.07 2185.73 1958.4 2183.47 1956.8 2182C1954 2179.33 1945.33 2171.87 1940.53 2168C1932.67 2161.6 1913.33 2144.93 1909.07 2140.93C1906.27 2138.4 1902.13 2135.6 1899.73 2134.93C1897.33 2134.13 1875.2 2132.93 1850.67 2132.13C1826.13 2131.33 1801.73 2130.4 1796.53 2130C1784.8 2129.2 1781.07 2131.2 1783.87 2136.4C1784.8 2138.13 1790.53 2144.8 1796.4 2151.07C1802.4 2157.33 1808 2163.33 1808.67 2164.27C1809.47 2165.2 1812.67 2169.6 1815.87 2174C1819.07 2178.4 1822.93 2183.07 1824.27 2184.4C1825.6 2185.73 1826.67 2187.87 1826.67 2189.33C1826.67 2191.87 1816.4 2205.2 1805.6 2216.67C1802.13 2220.27 1796.67 2226.27 1793.6 2230C1790.4 2233.6 1781.33 2243.33 1773.6 2251.47C1742.93 2283.33 1733.33 2293.47 1732.4 2295.2C1730.67 2298.13 1714.4 2311.2 1707.73 2315.07C1702.4 2318.13 1700.8 2318.53 1695.73 2317.47C1688.53 2316 1678.67 2312.53 1669.87 2308.53C1666.13 2306.8 1662.13 2305.33 1661.07 2305.33C1660 2305.33 1657.6 2304.13 1655.73 2302.8C1654 2301.33 1650.67 2299.73 1648.53 2299.2C1646.4 2298.67 1642.27 2296.93 1639.33 2295.33C1636.4 2293.6 1632 2292 1629.6 2291.47C1627.07 2291.07 1623.6 2289.47 1621.73 2288C1614.93 2282.67 1602 2286 1606.93 2291.73C1608.13 2292.93 1609.73 2296.27 1610.53 2298.93C1611.47 2301.73 1612.8 2304.4 1613.6 2304.8C1614.27 2305.2 1616 2308.13 1617.47 2311.2C1619.87 2316.27 1621.73 2319.87 1626.27 2328C1627.33 2329.87 1629.07 2333.47 1630.13 2336C1631.2 2338.53 1632.67 2341.6 1633.33 2342.67C1634.13 2343.73 1636.27 2347.6 1638.13 2351.33C1640 2354.93 1642.4 2359.47 1643.47 2361.33C1644.67 2363.47 1645.2 2366.93 1644.93 2370.93C1644.4 2377.47 1643.2 2379.07 1623.47 2398.27C1619.2 2402.53 1614.13 2407.6 1612.13 2409.6C1610.27 2411.73 1608.27 2413.33 1607.6 2413.33C1606.93 2413.33 1600.27 2418.93 1592.67 2425.6C1578.53 2438.4 1572.13 2443.87 1564 2450.27C1561.33 2452.27 1558.13 2455.07 1556.67 2456.27C1554.27 2458.4 1546.93 2464.67 1532 2477.47C1529.47 2479.6 1523.2 2484.53 1518.13 2488.4C1513.2 2492.27 1503.73 2499.73 1497.2 2504.93C1490.8 2510.27 1485.07 2514.67 1484.53 2514.67C1484.13 2514.67 1480.27 2517.6 1476 2521.33C1471.73 2524.93 1467.73 2528 1466.93 2528C1466.13 2528 1464.13 2529.2 1462.4 2530.67C1446.4 2544.27 1442.4 2544.8 1429.87 2534.27C1425.33 2530.53 1418.93 2525.47 1415.73 2523.07C1412.53 2520.67 1404.4 2513.33 1397.47 2506.8C1390.53 2500.13 1384.4 2494.67 1383.73 2494.67C1382.8 2494.67 1378.93 2491.2 1364.53 2477.33C1362.27 2475.07 1358.4 2472.67 1356 2471.73C1352.13 2470.53 1351.33 2470.53 1349.73 2472.67C1347.33 2476.13 1347.6 2480.13 1350.67 2488C1352.13 2491.73 1354 2499.07 1354.67 2504.4C1355.47 2509.6 1356.93 2516.4 1358 2519.73C1359.2 2522.93 1360.67 2531.33 1361.33 2538.4C1362.13 2545.47 1363.6 2554 1364.67 2557.33C1365.73 2560.67 1367.47 2569.87 1368.53 2578L1370.53 2592.67L1366.93 2595.73C1362.53 2599.47 1349.6 2608 1348.27 2608C1347.73 2608 1344.93 2609.87 1342.13 2612C1339.2 2614.27 1336.13 2616 1335.33 2616C1334.4 2616 1332.67 2617.2 1331.33 2618.67C1330 2620.13 1327.73 2621.6 1326.13 2622.13C1324.67 2622.67 1321.6 2624.4 1319.6 2626.13C1317.47 2627.87 1314.67 2629.33 1313.2 2629.33C1311.87 2629.33 1309.47 2630.53 1308.13 2631.87C1306.8 2633.2 1303.47 2635.2 1300.8 2636.13C1298.13 2637.07 1296 2638.4 1296 2638.93C1296 2639.6 1293.2 2641.33 1289.87 2642.67C1286.53 2644.13 1282.93 2646.27 1281.87 2647.33C1280.67 2648.4 1278.8 2649.33 1277.6 2649.33C1276.27 2649.33 1273.07 2650.8 1270.4 2652.67C1267.73 2654.53 1264.67 2656 1263.6 2656C1262.53 2656 1260.13 2657.2 1258.27 2658.67C1256.4 2660.13 1252.27 2662.27 1249.2 2663.33C1246.13 2664.53 1242.8 2666 1241.87 2666.8C1238.8 2669.33 1222 2677.33 1219.87 2677.33C1218.67 2677.33 1216.93 2678.27 1216 2679.33C1215.2 2680.4 1211.33 2682.13 1207.6 2683.2C1203.73 2684.4 1196.53 2687.47 1191.33 2690.13C1186.27 2692.67 1179.07 2695.73 1175.33 2696.67C1171.73 2697.73 1166.27 2699.73 1163.33 2701.2C1160.53 2702.8 1157.33 2704 1156.27 2704C1155.33 2704 1152.27 2705.2 1149.6 2706.53C1146.8 2708 1139.6 2709.87 1133.6 2710.8C1120.27 2712.8 1117.07 2711.73 1113.2 2703.73C1111.73 2700.53 1109.73 2696.53 1108.67 2694.67C1107.6 2692.8 1106.67 2690.27 1106.67 2689.07C1106.67 2687.73 1105.07 2683.2 1103.2 2679.07C1101.2 2674.8 1098.27 2668.27 1096.67 2664.67C1094.93 2660.93 1093.2 2655.2 1092.8 2651.73C1092.27 2648.4 1091.07 2644.93 1090 2644C1089.07 2643.2 1087.73 2640 1087.33 2636.93C1086.8 2633.87 1085.07 2628 1083.33 2624C1081.73 2620 1080 2614 1079.47 2610.93C1078.93 2607.73 1077.47 2602.93 1076.13 2600.27C1074.8 2597.47 1073.2 2592.27 1072.67 2588.67C1072.27 2584.93 1070.67 2579.47 1069.33 2576.53C1068 2573.47 1066.53 2568.53 1066 2565.47C1064.93 2558.67 1059.33 2551.73 1055.6 2552.27C1053.73 2552.53 1052.27 2554.67 1050.67 2559.6C1049.47 2563.47 1047.73 2567.33 1046.93 2568.27C1046.27 2569.2 1044.8 2573.87 1044 2578.67C1043.2 2583.47 1041.87 2588 1041.33 2588.67C1040.67 2589.47 1038.93 2594.27 1037.6 2599.33C1036.13 2604.53 1034 2611.07 1032.8 2614C1031.73 2616.93 1030.8 2620.8 1030.67 2622.53C1030.67 2624.27 1029.47 2627.6 1028.13 2629.87C1026.8 2632.13 1025.2 2636.67 1024.67 2640C1024.13 2643.33 1022.27 2648.8 1020.53 2652.27C1018.8 2655.73 1017.33 2659.73 1017.33 2660.93C1017.33 2662.27 1015.87 2666.13 1014 2669.6C1012.13 2673.07 1010.67 2677.33 1010.67 2679.07C1010.67 2680.8 1009.6 2683.73 1008.27 2685.47C1006.8 2687.2 1005.07 2690.67 1004.27 2693.07C1003.47 2695.6 1001.2 2699.33 999.334 2701.6C997.467 2703.73 996 2706.13 996 2706.8C996 2707.33 994.134 2708.93 991.734 2710.13C985.6 2713.33 977.6 2711.73 956 2703.33C945.734 2699.33 936.667 2696 935.6 2696C934.667 2696 931.867 2694.53 929.334 2692.67C926.8 2690.8 923.734 2689.33 922.534 2689.33C921.2 2689.33 919.334 2688.53 918.267 2687.47C917.334 2686.4 913.467 2684.67 909.867 2683.6C906.267 2682.4 900.934 2680.27 898 2678.8C895.2 2677.2 891.734 2676 890.534 2676C889.334 2676 886.934 2674.93 885.2 2673.6C881.734 2670.93 878 2668.8 862 2661.07C856.134 2658.13 850.134 2655.2 848.667 2654.4C847.2 2653.47 844.267 2652 842 2651.07C839.867 2650 836.534 2648.4 834.667 2647.33C832.8 2646.4 826.534 2643.07 820.667 2640C814.934 2636.93 808.667 2633.33 806.934 2631.87C805.067 2630.53 802.667 2629.33 801.334 2629.33C800 2629.33 797.467 2628.13 795.6 2626.67C793.734 2625.2 790.134 2623.07 787.734 2621.87C785.334 2620.8 780.667 2618.13 777.334 2616C774 2613.73 768.8 2610.8 765.734 2609.47C756.134 2604.93 755.467 2602.8 756.534 2579.87C756.934 2568.93 758 2558.4 758.8 2556.4C759.6 2554.27 761.334 2545.87 762.667 2537.6C764 2529.33 765.734 2521.73 766.534 2520.93C767.2 2520 768.267 2515.47 768.8 2510.67C769.334 2505.87 771.067 2497.6 772.8 2492.27C776.4 2481.2 776.8 2475.73 774.134 2473.47C771.467 2471.2 765.334 2473.07 761.067 2477.2C755.067 2483.2 743.867 2492.67 741.334 2494C739.867 2494.8 736 2498 732.667 2501.2C726.4 2507.2 705.734 2524.13 695.867 2531.33C692.934 2533.47 689.334 2536.4 687.734 2537.73C686.267 2539.2 682.4 2541.2 679.2 2542.27C671.467 2544.93 665.867 2543.07 655.6 2534.53C651.334 2530.93 646.934 2528 645.867 2528C644.8 2528 641.334 2525.47 638.134 2522.27C631.067 2515.47 614.934 2502 607.734 2497.07C604.934 2495.2 598.4 2489.73 593.334 2485.2C588.134 2480.53 582.534 2475.87 580.8 2474.8C579.067 2473.6 574.534 2470 570.8 2466.67C554.8 2452.53 549.334 2447.87 536.667 2437.6C529.334 2431.6 520.267 2423.87 516.534 2420.4C512.667 2416.8 507.867 2412.67 505.867 2411.07C503.734 2409.47 497.467 2404 491.867 2399.07C486.4 2394.13 479.867 2388.4 477.467 2386.27C473.6 2383.07 473.067 2382 473.867 2378.4C474.267 2376.13 475.467 2373.2 476.534 2372.13C477.467 2370.93 478.8 2368.53 479.334 2366.67C479.867 2364.8 481.467 2362 482.8 2360.27C484.134 2358.53 485.6 2355.33 486.134 2352.93C486.534 2350.53 488 2347.2 489.334 2345.33C490.667 2343.47 492.667 2339.87 493.867 2337.33C495.067 2334.8 497.867 2329.6 500 2326C502.134 2322.27 504.534 2317.87 505.334 2316C506.267 2314.13 507.734 2311.2 508.8 2309.33C509.734 2307.47 511.6 2303.87 512.934 2301.33C514.134 2298.8 516 2295.73 517.067 2294.4C518 2293.2 518.667 2290.53 518.4 2288.4C518 2284.93 517.6 2284.67 512.8 2284.93C509.867 2285.2 506.267 2286.4 504.8 2287.87C503.2 2289.33 499.6 2290.8 496.667 2291.33C493.734 2291.87 488.8 2293.73 485.734 2295.47C482.667 2297.2 479.067 2298.67 477.734 2298.67C476.4 2298.67 472.667 2300.13 469.334 2301.87C466 2303.6 461.6 2305.33 459.467 2305.87C457.2 2306.4 453.867 2308 451.867 2309.47C449.867 2310.8 447.2 2312 445.734 2312C444.4 2312 440.4 2313.6 436.667 2315.33C431.734 2317.87 427.867 2318.67 421.467 2318.67C414 2318.67 412.134 2318.13 406 2314C402.134 2311.47 396.134 2306.4 392.534 2302.8C388.934 2299.07 385.2 2295.33 384.267 2294.4C383.2 2293.47 380.267 2290.27 377.6 2287.47C374.8 2284.53 366.667 2276.13 359.334 2268.8C352.134 2261.33 343.334 2252 339.867 2248C336.4 2244 328.267 2235.2 321.867 2228.53C300.267 2206.27 294.667 2200 293.867 2196.8C292.934 2193.2 297.734 2182.93 301.467 2180.27C302.934 2179.33 304 2177.87 304 2176.93C304 2176.13 305.6 2173.87 307.467 2172C314.4 2165.07 331.067 2147.2 335.2 2142C340.934 2135.07 341.6 2132.93 339.2 2129.47C337.067 2126.4 333.334 2126 328 2128.13Z" fill="black"/>
</svg>
