<svg width="566" height="808" viewBox="0 0 566 808" fill="none" xmlns="http://www.w3.org/2000/svg">
<path d="M191.067 15.0668C184.4 23.3334 176.133 33.8668 172.667 38.6668C163.333 51.3334 160.533 54.1335 147.467 62.9335C126.667 77.0668 107.467 95.3334 95.8665 112.267C91.4665 118.8 82.5332 133.867 76.2665 145.733C65.9999 165.2 64.7999 168 64.7999 174.667C64.7999 179.733 65.8665 184.4 68.3999 190C70.2665 194.4 73.3332 204.533 75.1999 212.667C79.0665 230.667 89.0665 256.933 95.3332 266.133C97.9999 269.867 103.867 280.133 108.533 288.8L116.933 304.667L123.467 305.467C128.4 306.133 132.533 308 139.333 312.667C144.4 316.133 169.067 329.2 194 341.6C218.933 354.133 241.2 365.733 243.6 367.467C248.667 371.333 263.067 393.867 262.4 397.067C262.133 398.267 260.933 399.467 259.6 399.733C257.867 400.133 256.4 398.267 254.133 393.067C248.933 381.6 250.933 382.8 180.667 347.733C165.867 340.4 157.733 337.067 154 336.933L148.667 336.667L148.267 342.8C147.867 348.533 148.267 349.067 154.267 354.667C160.4 360.267 160.533 360.4 157.6 361.733C152.8 363.867 145.2 357.333 128.933 337.333C104.667 307.2 83.8665 273.867 79.1999 258C77.9999 253.6 75.1999 245.6 73.0665 240.267C70.9332 234.933 67.5999 223.467 65.8665 214.933C61.0665 193.333 61.1999 193.333 59.9999 193.333C58.2665 193.333 57.7332 204.667 57.4665 246.667C57.1999 296.133 58.9332 312.8 66.7999 334.8C69.7332 343.2 74.5332 354.267 77.4665 359.6C83.3332 370.4 83.7332 374.4 80.1332 382.8C74.7999 394.8 58.3999 459.333 54.5332 483.333C53.0665 492.8 50.3999 507.733 48.5332 516.4C45.1999 532.667 45.3332 535.867 49.4665 544.267C52.3999 550.133 56.1332 551.467 71.9999 552.667C91.9999 554.133 124.667 559.733 134.8 563.467C140.267 565.333 149.2 568.267 154.667 569.867C170.8 574.667 222.667 594.267 248.8 605.467C264.667 612.267 307.067 634.8 342.667 655.333C365.867 668.667 397.333 685.333 399.467 685.333C399.867 685.333 395.733 680.533 390.4 674.667C373.2 655.6 365.867 642 364.4 626.133C363.733 618 367.6 586.133 371.467 567.6C373.733 556.8 379.2 546.667 382.8 546.667C384.133 546.667 386.667 548.533 388.267 550.667C390.133 553.333 392.267 554.667 394 554.4C397.067 554 417.067 527.867 444.667 488C454.667 473.733 464.8 459.067 467.333 455.467C473.333 447.2 473.467 441.2 468.133 430.8C466 426.667 462 418.8 459.467 413.333C456.933 407.867 451.6 398.533 447.733 392.667C439.867 380.667 415.6 355.067 398.667 340.8C382 326.933 354.4 307.867 340.667 300.933C329.467 295.333 321.2 288.933 322.933 287.2C324.133 286.133 339.733 290.533 345.867 293.6C353.2 297.333 386 319.6 400 330.533C406.267 335.333 420 348.133 430.667 358.933C445.6 374.133 450.933 378.667 453.467 378.667C455.333 378.667 457.867 379.733 459.067 381.067C460.267 382.4 465.467 394 470.8 406.8C476 419.467 482 433.2 484.133 436.933C488.933 445.6 488.933 448.133 484.4 455.6C478.267 465.2 454.667 498.933 449.467 505.333C446.667 508.667 439.467 518.4 433.333 527.2C427.2 535.867 419.067 546.4 415.067 550.667C401.867 564.933 401.733 568.667 414.267 573.333C436.667 581.733 458.933 583.467 477.6 578.533C490.267 575.067 499.333 567.867 503.867 557.467C508.4 546.933 514.667 520.533 514.667 512.133C514.667 502.533 516.533 491.733 520.667 478C522.4 472.133 526.267 457.733 529.333 446C535.067 423.867 540.667 406.133 549.333 383.333C552.133 376 554.8 368.133 555.333 365.733C556.4 360.533 554 351.2 551.333 350.133C550.267 349.733 543.067 351.867 535.2 354.667C527.333 357.6 519.733 360 518.267 360C514.933 360 492.133 342.8 485.333 335.067L480.267 329.333L469.867 329.2C464 329.2 458.4 328.8 457.2 328.267C453.333 326.667 426.4 300 426.933 298.4C428.133 294.933 430.8 296.533 445.333 309.6L460.533 323.2L470.533 323.333C483.867 323.6 493.733 328.667 509.6 343.6C513.733 347.467 518.267 350.667 519.6 350.667C524.533 350.533 550 339.2 549.733 337.2C549.6 336.133 547.333 329.867 544.8 323.067C541.6 314.933 539.867 308.267 539.733 302.8C539.467 298.267 538.667 294.667 538 294.667C537.2 294.667 532.4 298.933 527.333 304C519.333 312 517.467 313.333 514 313.067C511.733 312.8 510 311.867 510 310.933C510 309.867 514.8 305.067 520.533 300.267C527.733 294.267 532.267 289.2 534.533 284.667C537.867 278.4 538 277.067 537.867 257.333C537.6 219.467 534.267 207.867 514.4 173.6C497.733 144.933 490.4 135.6 469.467 116.8C448.667 98.0001 444.533 95.2001 413.333 77.8668C381.733 60.5334 374.533 57.2001 360 53.4668C353.733 51.8668 344.533 48.8001 339.333 46.6668C327.333 41.8668 317.467 39.3334 300.133 36.6668C292.533 35.6002 282.667 33.7335 278.133 32.8001C263.6 29.4668 250.933 28.0001 247.733 29.2001C246 29.8668 243.333 29.8668 241.467 29.2001C236.8 27.3334 217.2 11.2001 212.667 5.33344C210.4 2.26678 207.6 0.133484 206 0.133484C204.267 0.133484 199.2 5.20013 191.067 15.0668ZM205.333 16.1335C205.333 16.8001 201.867 23.6002 197.6 31.0668C193.333 38.5334 187.2 49.4668 184 55.3334C180.8 61.2001 176.8 68.6668 174.933 72.0001C170.533 80.0001 157.867 112.667 155.2 123.067C151.067 138.933 154.933 158.4 165.067 171.867C172.533 181.733 181.733 188.667 198.267 196.8C206.4 200.8 213.467 205.067 213.867 206.133C215.333 209.867 214.667 211.867 211.867 213.333C209.733 214.533 208.133 214.267 204.267 212.4C201.6 210.933 195.467 207.867 190.667 205.333C178 198.8 168 192.4 162.133 186.8C156 181.067 144.533 158.667 143.2 149.867C140.8 133.867 158.133 85.0668 177.6 52.5334C182.533 44.5334 188.4 34.0001 190.667 29.0668C193.467 23.2001 196.4 19.0668 199.2 17.3334C203.867 14.4001 205.333 14.0001 205.333 16.1335ZM274 42.0001C285.867 45.3334 302.667 53.7335 310.4 60.0001C314.4 63.2001 321.467 70.5334 326.267 76.5334C336.4 89.0668 339.6 91.7335 354 98.8001C375.733 109.733 414.667 139.067 441.6 164.667C451.733 174.4 463.2 184 467.6 186.533C471.867 188.933 480.4 193.733 486.667 197.067C498.8 203.867 514 217.867 522.133 229.867L526.667 236.667V252.933C526.667 262 526.133 269.333 525.6 269.333C524 269.333 519.6 244.667 520.667 241.467C522.933 234.267 505.333 217.2 480.533 202.533C471.067 196.933 461.867 191.867 460.133 191.333C458.4 190.8 449.867 183.333 441.333 174.8C416.4 149.733 384.8 125.867 344.267 101.733C330.267 93.4668 324.667 89.3334 323.2 86.2668C319.467 79.2001 307.733 67.8668 296.4 60.5334C284.4 52.6668 263.733 44.0001 257.333 44.0001C255.067 44.0001 252 43.3334 250.533 42.5334C248 41.2001 248 40.9335 250 39.4668C252.667 37.6002 262.267 38.5334 274 42.0001ZM334.267 57.2001C365.733 69.4668 403.2 90.1335 428.4 109.067C445.067 121.733 464.4 140 474 152.533C478 157.733 487.467 167.867 495.2 174.933C505.867 184.933 510.533 190.4 515.2 198.533C518.533 204.4 521.333 210.133 521.333 211.333C521.333 216.133 516.8 212.533 510.267 202.267C504.933 194 500.133 188.8 491.2 181.333C484.667 175.867 475.067 166.267 469.733 160C448.933 135.333 436.267 123.067 418.267 110.267C408.667 103.333 397.067 95.6002 392.667 93.0668C371.6 80.8001 357.2 73.0668 348 69.0668C342.533 66.6668 337.2 63.7335 336.267 62.4001C335.333 61.2001 332.667 59.7335 330.267 59.3334C326.133 58.5334 316.533 52.0001 319.467 52.0001C320.133 52.0001 326.933 54.4001 334.267 57.2001ZM120 103.2C120 105.067 120.933 107.333 122 108.533C124.8 111.333 124.533 113.067 120.4 116.533C117.2 119.333 116.667 120.8 116.267 128.8C115.867 137.467 116.667 143.467 119.733 152.667C120.533 154.8 121.733 160.133 122.533 164.4C123.867 172.133 127.067 180.267 135.733 198.667C139.333 206.533 142.8 211.067 152 220.267C162.8 230.933 165.2 232.533 183.467 241.733C212.533 256.133 239.867 270.8 246.667 275.467C250 277.733 261.333 284.533 272 290.667C282.533 296.667 296.667 305.467 303.333 310C309.867 314.533 317.467 319.333 320 320.667C322.533 321.867 327.733 325.333 331.6 328.133C335.467 331.067 343.2 335.733 348.8 338.8C359.733 344.533 370 351.2 371.333 353.333C373.6 357.067 374.4 362.667 372.8 364.8C371.067 367.067 366 364.133 323.2 334.8C306.933 323.6 264.267 298.4 230 280C179.467 252.667 175.2 250.4 168 247.2C162.933 244.8 157.333 240.4 148.667 231.6C132.933 215.6 123.6 201.467 119.2 186.667C117.333 180.4 114.667 172.267 113.333 168.667C110.267 160.8 109.733 156.533 108.667 136.267L108 121.2L111.867 117.333C115.467 113.733 115.6 112.933 114.4 108.8C112.667 103.2 113.733 100 117.333 100C119.333 100 120 100.933 120 103.2ZM438 244.667C449.067 250.133 455.6 252.4 464.667 254C471.333 255.2 478.533 257.2 480.933 258.4C486.133 261.067 517.333 291.733 517.333 294C517.333 296.533 513.467 297.467 510.4 295.867C508.933 295.067 502 289.067 494.933 282.4C476 264.667 474.667 263.867 465.333 263.067C457.467 262.267 457.333 262.4 457.333 265.733C457.333 267.6 458 269.6 458.667 270C459.467 270.4 460 272.267 460 274.133C460 277.333 459.867 277.333 456 275.333C453.2 273.867 451.6 271.733 450.533 267.6C449.6 264.533 448 261.067 447.067 259.867C446 258.667 438 253.6 429.333 248.667C420.533 243.733 413.333 239.2 413.333 238.533C413.333 236.933 416.4 236.133 420 236.8C421.867 237.2 430 240.8 438 244.667ZM478.667 288.8L486 291.333L485.6 298C485.2 306 481.733 311.2 476.8 311.733C472.8 312.267 460 306.133 445.2 296.533C429.333 286.4 430.533 284.8 453.867 285.6C466.267 286.133 473.467 286.933 478.667 288.8Z" fill="black"/>
<path d="M44.6666 578.667C32.1333 588.4 18.7999 599.067 14.9333 602.133C10.9333 605.333 5.99995 609.067 3.86661 610.267C-0.933387 613.067 -1.33339 617.333 3.06661 617.333C4.93328 617.333 16.9333 609.733 32.1333 599.2C46.3999 589.2 60.2666 579.867 63.0666 578.533C68.6666 575.6 73.5999 575.733 97.5999 579.467C106.4 580.933 111.2 581.067 112.933 580.267C116 578.533 120.667 573.467 119.867 572.667C118.933 571.867 79.9999 562.8 73.0666 561.867L67.2 561.067L44.6666 578.667Z" fill="black"/>
<path d="M124.133 609.334C105.733 626.267 90.6665 640.667 90.6665 641.334C90.6665 644.667 96.9332 641.2 126.8 621.2C144.533 609.467 160.267 599.334 161.867 598.667C165.2 597.467 187.333 604 190.4 607.2C191.333 608.134 193.6 614.267 195.333 620.8C205.867 661.2 207.467 666.667 209.333 666.667C211.333 666.667 211.467 663.2 210.667 628.8L210 594.267L185.467 586.534C172 582.134 160.267 578.667 159.333 578.667C158.4 578.667 142.667 592.534 124.133 609.334Z" fill="black"/>
<path d="M246.667 620.267C246.667 624.134 247.2 628 247.733 628.934C248.267 629.734 257.733 635.334 268.667 641.334C279.733 647.334 289.333 652.934 290.133 653.867C291.6 655.2 297.867 669.2 317.333 713.734C322.8 726.134 325.333 730.134 325.333 726.534C325.333 725.6 320.4 706.4 314.4 683.734L303.467 642.667L298.133 639.467C293.733 636.934 251.867 615.467 247.733 613.6C247.067 613.334 246.667 616.267 246.667 620.267Z" fill="black"/>
<path d="M335.466 670.267C335.866 673.867 336.933 677.734 337.466 678.934C338.133 680.134 344.266 684.534 351.066 688.534C357.866 692.534 364.4 696.8 365.466 698C366.533 699.2 375.466 716.534 385.333 736.4C400.266 766.4 403.866 772.8 406.4 773.067C408.266 773.334 409.333 772.8 409.333 771.467C409.333 769.734 387.733 711.2 379.333 690.4C375.466 680.534 378 682.4 350.933 669.867C334.8 662.267 334.266 662.267 335.466 670.267Z" fill="black"/>
<path d="M414.667 721.2C414.667 729.6 415.067 730.8 419.6 736.8C433.467 754.934 455.333 780.8 467.2 792.934C486.133 812.4 487.066 811.734 473.2 788.534C468 779.867 459.867 765.734 455.067 757.334C445.067 739.867 436.533 728.534 425.867 718.8C415.733 709.6 414.667 709.867 414.667 721.2Z" fill="black"/>
</svg>
